%TF.GenerationSoftware,KiCad,Pcbnew,8.0.3*%
%TF.CreationDate,2024-06-24T08:11:51-04:00*%
%TF.ProjectId,bike_cadence_meter,62696b65-5f63-4616-9465-6e63655f6d65,rev?*%
%TF.SameCoordinates,Original*%
%TF.FileFunction,Copper,L2,Bot*%
%TF.FilePolarity,Positive*%
%FSLAX46Y46*%
G04 Gerber Fmt 4.6, Leading zero omitted, Abs format (unit mm)*
G04 Created by KiCad (PCBNEW 8.0.3) date 2024-06-24 08:11:51*
%MOMM*%
%LPD*%
G01*
G04 APERTURE LIST*
%TA.AperFunction,ComponentPad*%
%ADD10R,1.700000X1.700000*%
%TD*%
%TA.AperFunction,ComponentPad*%
%ADD11O,1.700000X1.700000*%
%TD*%
%TA.AperFunction,ViaPad*%
%ADD12C,0.600000*%
%TD*%
%TA.AperFunction,Conductor*%
%ADD13C,0.200000*%
%TD*%
%TA.AperFunction,Conductor*%
%ADD14C,0.400000*%
%TD*%
G04 APERTURE END LIST*
D10*
%TO.P,J2,1,Pin_1*%
%TO.N,VCC*%
X28630000Y-46750000D03*
D11*
%TO.P,J2,2,Pin_2*%
%TO.N,SWDIO*%
X31170000Y-46750000D03*
%TO.P,J2,3,Pin_3*%
%TO.N,SWDCLK*%
X33710000Y-46750000D03*
%TO.P,J2,4,Pin_4*%
%TO.N,GND*%
X36250000Y-46750000D03*
%TD*%
D12*
%TO.N,GND*%
X53250000Y-22750000D03*
X60000000Y-26250000D03*
X36250000Y-40750000D03*
X65250000Y-26250000D03*
X64475000Y-36025000D03*
X47000000Y-41750000D03*
X55550000Y-31250000D03*
X30750000Y-32000000D03*
X41000000Y-41750000D03*
X44250000Y-32000000D03*
X49925000Y-29500000D03*
X64280000Y-42280000D03*
%TO.N,VCC*%
X63725000Y-34955000D03*
X49500000Y-40750000D03*
X49500000Y-37250000D03*
%TO.N,SWDCLK*%
X51420000Y-42420000D03*
%TO.N,INT_1*%
X55500000Y-28500000D03*
X55450000Y-23987500D03*
%TO.N,SWDIO*%
X50250000Y-43750000D03*
%TD*%
D13*
%TO.N,INT_1*%
X55450000Y-28450000D02*
X55450000Y-23987500D01*
X55500000Y-28500000D02*
X55450000Y-28450000D01*
%TO.N,SWDIO*%
X49500000Y-44500000D02*
X50250000Y-43750000D01*
X31170000Y-46750000D02*
X33420000Y-44500000D01*
X33420000Y-44500000D02*
X49500000Y-44500000D01*
%TO.N,SWDCLK*%
X51420000Y-43357818D02*
X51420000Y-42420000D01*
X49877818Y-44900000D02*
X51420000Y-43357818D01*
X35560000Y-44900000D02*
X49877818Y-44900000D01*
X33710000Y-46750000D02*
X35560000Y-44900000D01*
%TO.N,GND*%
X62600000Y-21800000D02*
X62600000Y-23000000D01*
D14*
%TO.N,VCC*%
X61430000Y-37250000D02*
X49500000Y-37250000D01*
X63725000Y-34955000D02*
X61430000Y-37250000D01*
X49500000Y-40750000D02*
X49500000Y-37250000D01*
%TD*%
%TA.AperFunction,Conductor*%
%TO.N,GND*%
G36*
X67692539Y-21520185D02*
G01*
X67738294Y-21572989D01*
X67749500Y-21624500D01*
X67749500Y-42575500D01*
X67729815Y-42642539D01*
X67677011Y-42688294D01*
X67625500Y-42699500D01*
X64600000Y-42699500D01*
X64600000Y-22080000D01*
X60700000Y-22080000D01*
X60700000Y-36549500D01*
X49925494Y-36549500D01*
X49859523Y-36530494D01*
X49849525Y-36524212D01*
X49679254Y-36464631D01*
X49679249Y-36464630D01*
X49500004Y-36444435D01*
X49499996Y-36444435D01*
X49320750Y-36464630D01*
X49320745Y-36464631D01*
X49150476Y-36524211D01*
X48997737Y-36620184D01*
X48870184Y-36747737D01*
X48774211Y-36900476D01*
X48714631Y-37070745D01*
X48714630Y-37070750D01*
X48694435Y-37249996D01*
X48694435Y-37250003D01*
X48714630Y-37429249D01*
X48714631Y-37429254D01*
X48774212Y-37599525D01*
X48780492Y-37609519D01*
X48799500Y-37675493D01*
X48799500Y-40324507D01*
X48780494Y-40390478D01*
X48774209Y-40400479D01*
X48714633Y-40570737D01*
X48714630Y-40570750D01*
X48694435Y-40749996D01*
X48694435Y-40750003D01*
X48714630Y-40929249D01*
X48714631Y-40929254D01*
X48774211Y-41099523D01*
X48870184Y-41252262D01*
X48997738Y-41379816D01*
X49150478Y-41475789D01*
X49320745Y-41535368D01*
X49320750Y-41535369D01*
X49499996Y-41555565D01*
X49500000Y-41555565D01*
X49500004Y-41555565D01*
X49679249Y-41535369D01*
X49679252Y-41535368D01*
X49679255Y-41535368D01*
X49849522Y-41475789D01*
X50002262Y-41379816D01*
X50129816Y-41252262D01*
X50225789Y-41099522D01*
X50285368Y-40929255D01*
X50305565Y-40750000D01*
X50285368Y-40570745D01*
X50285367Y-40570743D01*
X50285366Y-40570737D01*
X50225790Y-40400479D01*
X50219506Y-40390478D01*
X50200500Y-40324507D01*
X50200500Y-38074500D01*
X50220185Y-38007461D01*
X50272989Y-37961706D01*
X50324500Y-37950500D01*
X60700000Y-37950500D01*
X60700000Y-42699500D01*
X57134108Y-42699500D01*
X57006814Y-42733608D01*
X56999304Y-42736719D01*
X56998850Y-42735623D01*
X56945197Y-42750000D01*
X52326452Y-42750000D01*
X52259413Y-42730315D01*
X52213658Y-42677511D01*
X52203714Y-42608353D01*
X52205314Y-42599734D01*
X52225565Y-42420003D01*
X52225565Y-42419996D01*
X52205369Y-42240750D01*
X52205368Y-42240745D01*
X52145788Y-42070476D01*
X52049815Y-41917737D01*
X51922262Y-41790184D01*
X51769523Y-41694211D01*
X51599254Y-41634631D01*
X51599249Y-41634630D01*
X51420004Y-41614435D01*
X51419996Y-41614435D01*
X51240750Y-41634630D01*
X51240745Y-41634631D01*
X51070476Y-41694211D01*
X50917737Y-41790184D01*
X50790184Y-41917737D01*
X50694211Y-42070476D01*
X50634631Y-42240745D01*
X50634630Y-42240750D01*
X50614435Y-42419996D01*
X50614435Y-42420003D01*
X50635411Y-42606175D01*
X50633949Y-42606339D01*
X50630171Y-42668132D01*
X50588879Y-42724495D01*
X50523671Y-42749586D01*
X50513548Y-42750000D01*
X48910000Y-42750000D01*
X48910000Y-43775500D01*
X48890315Y-43842539D01*
X48837511Y-43888294D01*
X48786000Y-43899500D01*
X33506670Y-43899500D01*
X33506654Y-43899499D01*
X33499058Y-43899499D01*
X33340943Y-43899499D01*
X33264579Y-43919961D01*
X33188214Y-43940423D01*
X33188209Y-43940426D01*
X33051290Y-44019475D01*
X33051282Y-44019481D01*
X31653530Y-45417233D01*
X31592207Y-45450718D01*
X31533756Y-45449327D01*
X31405413Y-45414938D01*
X31405403Y-45414936D01*
X31170001Y-45394341D01*
X31169999Y-45394341D01*
X30934596Y-45414936D01*
X30934586Y-45414938D01*
X30706344Y-45476094D01*
X30706335Y-45476098D01*
X30492171Y-45575964D01*
X30492169Y-45575965D01*
X30298600Y-45711503D01*
X30176673Y-45833430D01*
X30115350Y-45866914D01*
X30045658Y-45861930D01*
X29989725Y-45820058D01*
X29972810Y-45789081D01*
X29923797Y-45657671D01*
X29923793Y-45657664D01*
X29837547Y-45542455D01*
X29837544Y-45542452D01*
X29722335Y-45456206D01*
X29722328Y-45456202D01*
X29587482Y-45405908D01*
X29587483Y-45405908D01*
X29527883Y-45399501D01*
X29527881Y-45399500D01*
X29527873Y-45399500D01*
X29527864Y-45399500D01*
X27732129Y-45399500D01*
X27732123Y-45399501D01*
X27672516Y-45405908D01*
X27537671Y-45456202D01*
X27537664Y-45456206D01*
X27422455Y-45542452D01*
X27422452Y-45542455D01*
X27336206Y-45657664D01*
X27336202Y-45657671D01*
X27285908Y-45792517D01*
X27279501Y-45852116D01*
X27279500Y-45852135D01*
X27279500Y-47647870D01*
X27279501Y-47647876D01*
X27285908Y-47707483D01*
X27336202Y-47842328D01*
X27336206Y-47842335D01*
X27422452Y-47957544D01*
X27422455Y-47957547D01*
X27537664Y-48043793D01*
X27537671Y-48043797D01*
X27672517Y-48094091D01*
X27672516Y-48094091D01*
X27679444Y-48094835D01*
X27732127Y-48100500D01*
X29527872Y-48100499D01*
X29587483Y-48094091D01*
X29722331Y-48043796D01*
X29837546Y-47957546D01*
X29923796Y-47842331D01*
X29972810Y-47710916D01*
X30014681Y-47654984D01*
X30080145Y-47630566D01*
X30148418Y-47645417D01*
X30176673Y-47666569D01*
X30298599Y-47788495D01*
X30395384Y-47856265D01*
X30492165Y-47924032D01*
X30492167Y-47924033D01*
X30492170Y-47924035D01*
X30706337Y-48023903D01*
X30934592Y-48085063D01*
X31111034Y-48100500D01*
X31169999Y-48105659D01*
X31170000Y-48105659D01*
X31170001Y-48105659D01*
X31228966Y-48100500D01*
X31405408Y-48085063D01*
X31633663Y-48023903D01*
X31847830Y-47924035D01*
X32041401Y-47788495D01*
X32208495Y-47621401D01*
X32338425Y-47435842D01*
X32393002Y-47392217D01*
X32462500Y-47385023D01*
X32524855Y-47416546D01*
X32541575Y-47435842D01*
X32671281Y-47621082D01*
X32671505Y-47621401D01*
X32838599Y-47788495D01*
X32935384Y-47856265D01*
X33032165Y-47924032D01*
X33032167Y-47924033D01*
X33032170Y-47924035D01*
X33246337Y-48023903D01*
X33474592Y-48085063D01*
X33651034Y-48100500D01*
X33709999Y-48105659D01*
X33710000Y-48105659D01*
X33710001Y-48105659D01*
X33768966Y-48100500D01*
X33945408Y-48085063D01*
X34173663Y-48023903D01*
X34387830Y-47924035D01*
X34581401Y-47788495D01*
X34748495Y-47621401D01*
X34878730Y-47435405D01*
X34933307Y-47391781D01*
X35002805Y-47384587D01*
X35065160Y-47416110D01*
X35081879Y-47435405D01*
X35211890Y-47621078D01*
X35378917Y-47788105D01*
X35572421Y-47923600D01*
X35786507Y-48023429D01*
X35786516Y-48023433D01*
X36000000Y-48080634D01*
X36000000Y-47183012D01*
X36057007Y-47215925D01*
X36184174Y-47250000D01*
X36315826Y-47250000D01*
X36442993Y-47215925D01*
X36500000Y-47183012D01*
X36500000Y-48080633D01*
X36713483Y-48023433D01*
X36713492Y-48023429D01*
X36927578Y-47923600D01*
X37121082Y-47788105D01*
X37288105Y-47621082D01*
X37423600Y-47427578D01*
X37523429Y-47213492D01*
X37523432Y-47213486D01*
X37580636Y-47000000D01*
X36683012Y-47000000D01*
X36715925Y-46942993D01*
X36750000Y-46815826D01*
X36750000Y-46684174D01*
X36715925Y-46557007D01*
X36683012Y-46500000D01*
X37580636Y-46500000D01*
X37580635Y-46499999D01*
X37523432Y-46286513D01*
X37523429Y-46286507D01*
X37423600Y-46072422D01*
X37423599Y-46072420D01*
X37288113Y-45878926D01*
X37288108Y-45878920D01*
X37121369Y-45712181D01*
X37087884Y-45650858D01*
X37092868Y-45581166D01*
X37134740Y-45525233D01*
X37200204Y-45500816D01*
X37209050Y-45500500D01*
X48786000Y-45500500D01*
X48853039Y-45520185D01*
X48898794Y-45572989D01*
X48910000Y-45624500D01*
X48910000Y-49375500D01*
X48890315Y-49442539D01*
X48837511Y-49488294D01*
X48786000Y-49499500D01*
X25374500Y-49499500D01*
X25307461Y-49479815D01*
X25261706Y-49427011D01*
X25250500Y-49375500D01*
X25250500Y-23987496D01*
X54644435Y-23987496D01*
X54644435Y-23987503D01*
X54664630Y-24166749D01*
X54664631Y-24166754D01*
X54724211Y-24337023D01*
X54820185Y-24489763D01*
X54822445Y-24492597D01*
X54823334Y-24494775D01*
X54823889Y-24495658D01*
X54823734Y-24495755D01*
X54848855Y-24557283D01*
X54849500Y-24569912D01*
X54849500Y-27994931D01*
X54830494Y-28060903D01*
X54774211Y-28150477D01*
X54774209Y-28150481D01*
X54714633Y-28320737D01*
X54714630Y-28320750D01*
X54694435Y-28499996D01*
X54694435Y-28500003D01*
X54714630Y-28679249D01*
X54714631Y-28679254D01*
X54774211Y-28849523D01*
X54870184Y-29002262D01*
X54997738Y-29129816D01*
X55150478Y-29225789D01*
X55320745Y-29285368D01*
X55320750Y-29285369D01*
X55499996Y-29305565D01*
X55500000Y-29305565D01*
X55500004Y-29305565D01*
X55679249Y-29285369D01*
X55679252Y-29285368D01*
X55679255Y-29285368D01*
X55849522Y-29225789D01*
X56002262Y-29129816D01*
X56129816Y-29002262D01*
X56225789Y-28849522D01*
X56285368Y-28679255D01*
X56305565Y-28500000D01*
X56285368Y-28320745D01*
X56225789Y-28150478D01*
X56129816Y-27997738D01*
X56086819Y-27954741D01*
X56053334Y-27893418D01*
X56050500Y-27867060D01*
X56050500Y-24569912D01*
X56070185Y-24502873D01*
X56077555Y-24492597D01*
X56079810Y-24489767D01*
X56079816Y-24489762D01*
X56175789Y-24337022D01*
X56235368Y-24166755D01*
X56255565Y-23987500D01*
X56235368Y-23808245D01*
X56175789Y-23637978D01*
X56079816Y-23485238D01*
X55952262Y-23357684D01*
X55799523Y-23261711D01*
X55629254Y-23202131D01*
X55629249Y-23202130D01*
X55450004Y-23181935D01*
X55449996Y-23181935D01*
X55270750Y-23202130D01*
X55270745Y-23202131D01*
X55100476Y-23261711D01*
X54947737Y-23357684D01*
X54820184Y-23485237D01*
X54724211Y-23637976D01*
X54664631Y-23808245D01*
X54664630Y-23808250D01*
X54644435Y-23987496D01*
X25250500Y-23987496D01*
X25250500Y-21624500D01*
X25270185Y-21557461D01*
X25322989Y-21511706D01*
X25374500Y-21500500D01*
X67625500Y-21500500D01*
X67692539Y-21520185D01*
G37*
%TD.AperFunction*%
%TD*%
%TA.AperFunction,Conductor*%
%TO.N,GND*%
G36*
X63593039Y-22799685D02*
G01*
X63638794Y-22852489D01*
X63650000Y-22904000D01*
X63650000Y-30306000D01*
X63630315Y-30373039D01*
X63577511Y-30418794D01*
X63526000Y-30430000D01*
X61774000Y-30430000D01*
X61706961Y-30410315D01*
X61661206Y-30357511D01*
X61650000Y-30306000D01*
X61650000Y-22904000D01*
X61669685Y-22836961D01*
X61722489Y-22791206D01*
X61774000Y-22780000D01*
X63526000Y-22780000D01*
X63593039Y-22799685D01*
G37*
%TD.AperFunction*%
%TD*%
%TA.AperFunction,Conductor*%
%TO.N,GND*%
G36*
X64600000Y-42699500D02*
G01*
X60700000Y-42699500D01*
X60700000Y-37950500D01*
X61498996Y-37950500D01*
X61590040Y-37932389D01*
X61634328Y-37923580D01*
X61698069Y-37897177D01*
X61761807Y-37870777D01*
X61761808Y-37870776D01*
X61761811Y-37870775D01*
X61876543Y-37794114D01*
X63924290Y-35746365D01*
X63971013Y-35717007D01*
X64074522Y-35680789D01*
X64227262Y-35584816D01*
X64354816Y-35457262D01*
X64450789Y-35304522D01*
X64510368Y-35134255D01*
X64530565Y-34955000D01*
X64510368Y-34775745D01*
X64450789Y-34605478D01*
X64354816Y-34452738D01*
X64227262Y-34325184D01*
X64074523Y-34229211D01*
X63904254Y-34169631D01*
X63904249Y-34169630D01*
X63725004Y-34149435D01*
X63724996Y-34149435D01*
X63545750Y-34169630D01*
X63545745Y-34169631D01*
X63375476Y-34229211D01*
X63222737Y-34325184D01*
X63095184Y-34452737D01*
X62999212Y-34605475D01*
X62999211Y-34605476D01*
X62962992Y-34708984D01*
X62933632Y-34755709D01*
X61176162Y-36513181D01*
X61114839Y-36546666D01*
X61088481Y-36549500D01*
X60700000Y-36549500D01*
X60700000Y-31230000D01*
X64600000Y-31230000D01*
X64600000Y-42699500D01*
G37*
%TD.AperFunction*%
%TD*%
M02*
