%TF.GenerationSoftware,KiCad,Pcbnew,8.0.3*%
%TF.CreationDate,2024-06-24T08:11:51-04:00*%
%TF.ProjectId,bike_cadence_meter,62696b65-5f63-4616-9465-6e63655f6d65,rev?*%
%TF.SameCoordinates,Original*%
%TF.FileFunction,Copper,L1,Top*%
%TF.FilePolarity,Positive*%
%FSLAX46Y46*%
G04 Gerber Fmt 4.6, Leading zero omitted, Abs format (unit mm)*
G04 Created by KiCad (PCBNEW 8.0.3) date 2024-06-24 08:11:51*
%MOMM*%
%LPD*%
G01*
G04 APERTURE LIST*
G04 Aperture macros list*
%AMRoundRect*
0 Rectangle with rounded corners*
0 $1 Rounding radius*
0 $2 $3 $4 $5 $6 $7 $8 $9 X,Y pos of 4 corners*
0 Add a 4 corners polygon primitive as box body*
4,1,4,$2,$3,$4,$5,$6,$7,$8,$9,$2,$3,0*
0 Add four circle primitives for the rounded corners*
1,1,$1+$1,$2,$3*
1,1,$1+$1,$4,$5*
1,1,$1+$1,$6,$7*
1,1,$1+$1,$8,$9*
0 Add four rect primitives between the rounded corners*
20,1,$1+$1,$2,$3,$4,$5,0*
20,1,$1+$1,$4,$5,$6,$7,0*
20,1,$1+$1,$6,$7,$8,$9,0*
20,1,$1+$1,$8,$9,$2,$3,0*%
G04 Aperture macros list end*
%TA.AperFunction,SMDPad,CuDef*%
%ADD10C,1.000000*%
%TD*%
%TA.AperFunction,SMDPad,CuDef*%
%ADD11RoundRect,0.200000X0.275000X-0.200000X0.275000X0.200000X-0.275000X0.200000X-0.275000X-0.200000X0*%
%TD*%
%TA.AperFunction,ComponentPad*%
%ADD12R,1.700000X1.700000*%
%TD*%
%TA.AperFunction,ComponentPad*%
%ADD13O,1.700000X1.700000*%
%TD*%
%TA.AperFunction,SMDPad,CuDef*%
%ADD14RoundRect,0.200000X-0.275000X0.200000X-0.275000X-0.200000X0.275000X-0.200000X0.275000X0.200000X0*%
%TD*%
%TA.AperFunction,SMDPad,CuDef*%
%ADD15RoundRect,0.225000X0.225000X0.250000X-0.225000X0.250000X-0.225000X-0.250000X0.225000X-0.250000X0*%
%TD*%
%TA.AperFunction,SMDPad,CuDef*%
%ADD16RoundRect,0.225000X-0.250000X0.225000X-0.250000X-0.225000X0.250000X-0.225000X0.250000X0.225000X0*%
%TD*%
%TA.AperFunction,SMDPad,CuDef*%
%ADD17RoundRect,0.200000X-0.200000X-0.275000X0.200000X-0.275000X0.200000X0.275000X-0.200000X0.275000X0*%
%TD*%
%TA.AperFunction,SMDPad,CuDef*%
%ADD18RoundRect,0.150000X0.725000X0.150000X-0.725000X0.150000X-0.725000X-0.150000X0.725000X-0.150000X0*%
%TD*%
%TA.AperFunction,SMDPad,CuDef*%
%ADD19RoundRect,0.150000X-0.150000X0.725000X-0.150000X-0.725000X0.150000X-0.725000X0.150000X0.725000X0*%
%TD*%
%TA.AperFunction,SMDPad,CuDef*%
%ADD20R,1.000000X0.750000*%
%TD*%
%TA.AperFunction,SMDPad,CuDef*%
%ADD21RoundRect,0.218750X-0.256250X0.218750X-0.256250X-0.218750X0.256250X-0.218750X0.256250X0.218750X0*%
%TD*%
%TA.AperFunction,SMDPad,CuDef*%
%ADD22RoundRect,0.150000X0.150000X-0.450000X0.150000X0.450000X-0.150000X0.450000X-0.150000X-0.450000X0*%
%TD*%
%TA.AperFunction,SMDPad,CuDef*%
%ADD23C,12.000000*%
%TD*%
%TA.AperFunction,SMDPad,CuDef*%
%ADD24R,1.270000X5.080000*%
%TD*%
%TA.AperFunction,SMDPad,CuDef*%
%ADD25RoundRect,0.087500X-0.087500X0.225000X-0.087500X-0.225000X0.087500X-0.225000X0.087500X0.225000X0*%
%TD*%
%TA.AperFunction,SMDPad,CuDef*%
%ADD26RoundRect,0.087500X-0.225000X0.087500X-0.225000X-0.087500X0.225000X-0.087500X0.225000X0.087500X0*%
%TD*%
%TA.AperFunction,ViaPad*%
%ADD27C,0.600000*%
%TD*%
%TA.AperFunction,Conductor*%
%ADD28C,0.200000*%
%TD*%
%TA.AperFunction,Conductor*%
%ADD29C,0.400000*%
%TD*%
G04 APERTURE END LIST*
D10*
%TO.P,TP4,1,1*%
%TO.N,INT_1*%
X57250000Y-30750000D03*
%TD*%
%TO.P,VCC,1,1*%
%TO.N,VCC*%
X26500000Y-43750000D03*
%TD*%
%TO.P,GND,1,1*%
%TO.N,GND*%
X36250000Y-43750000D03*
%TD*%
%TO.P,P13,1,1*%
%TO.N,Net-(TP1-Pad1)*%
X51750000Y-36250000D03*
%TD*%
D11*
%TO.P,R5,1*%
%TO.N,VCC*%
X53000000Y-31250000D03*
%TO.P,R5,2*%
%TO.N,Net-(D1-K)*%
X53000000Y-29600000D03*
%TD*%
%TO.P,R2,1*%
%TO.N,SDA_1*%
X58750000Y-24900000D03*
%TO.P,R2,2*%
%TO.N,VCC*%
X58750000Y-23250000D03*
%TD*%
D12*
%TO.P,J2,1,Pin_1*%
%TO.N,VCC*%
X28630000Y-46750000D03*
D13*
%TO.P,J2,2,Pin_2*%
%TO.N,SWDIO*%
X31170000Y-46750000D03*
%TO.P,J2,3,Pin_3*%
%TO.N,SWDCLK*%
X33710000Y-46750000D03*
%TO.P,J2,4,Pin_4*%
%TO.N,GND*%
X36250000Y-46750000D03*
%TD*%
D14*
%TO.P,R4,1*%
%TO.N,Net-(U2-CS)*%
X54000000Y-26350000D03*
%TO.P,R4,2*%
%TO.N,VCC*%
X54000000Y-28000000D03*
%TD*%
%TO.P,R1,1*%
%TO.N,VCC*%
X56950000Y-23250000D03*
%TO.P,R1,2*%
%TO.N,SCL_1*%
X56950000Y-24900000D03*
%TD*%
D15*
%TO.P,C2,1*%
%TO.N,GND*%
X65500000Y-31280000D03*
%TO.P,C2,2*%
%TO.N,VCC*%
X63950000Y-31280000D03*
%TD*%
D16*
%TO.P,C6,1*%
%TO.N,GND*%
X60000000Y-27862500D03*
%TO.P,C6,2*%
%TO.N,XL2*%
X60000000Y-29412500D03*
%TD*%
D15*
%TO.P,C1,1*%
%TO.N,VCC*%
X51800000Y-27970000D03*
%TO.P,C1,2*%
%TO.N,GND*%
X50250000Y-27970000D03*
%TD*%
D17*
%TO.P,R3,1*%
%TO.N,VCC*%
X50750000Y-40750000D03*
%TO.P,R3,2*%
%TO.N,Net-(U1-nRESET)*%
X52400000Y-40750000D03*
%TD*%
D18*
%TO.P,U1,39,GND*%
%TO.N,GND*%
X65900000Y-42280000D03*
%TO.P,U1,38,CLK*%
%TO.N,unconnected-(U1-CLK-Pad38)*%
X65900000Y-41530000D03*
%TO.P,U1,37,SDA*%
%TO.N,SDA_1*%
X65900000Y-40780000D03*
%TO.P,U1,36,SCL*%
%TO.N,SCL_1*%
X65900000Y-40030000D03*
%TO.P,U1,35,I/O*%
%TO.N,unconnected-(U1-I{slash}O-Pad35)*%
X65900000Y-39280000D03*
%TO.P,U1,34,I/O*%
%TO.N,unconnected-(U1-I{slash}O-Pad34)*%
X65900000Y-38530000D03*
%TO.P,U1,33,I/O*%
%TO.N,unconnected-(U1-I{slash}O-Pad33)*%
X65900000Y-37780000D03*
%TO.P,U1,32,I/O*%
%TO.N,unconnected-(U1-I{slash}O-Pad32)*%
X65900000Y-37030000D03*
%TO.P,U1,31,I/O*%
%TO.N,unconnected-(U1-I{slash}O-Pad31)*%
X65900000Y-36280000D03*
%TO.P,U1,30,I/O*%
%TO.N,unconnected-(U1-I{slash}O-Pad30)*%
X65900000Y-35530000D03*
%TO.P,U1,29,I/O*%
%TO.N,unconnected-(U1-I{slash}O-Pad29)*%
X65900000Y-34780000D03*
%TO.P,U1,28,I/O*%
%TO.N,unconnected-(U1-I{slash}O-Pad28)*%
X65900000Y-34030000D03*
D19*
%TO.P,U1,27,GND*%
%TO.N,GND*%
X64475000Y-33280000D03*
%TO.P,U1,26,VDD*%
%TO.N,VCC*%
X63725000Y-33280000D03*
%TO.P,U1,25,XL1*%
%TO.N,XL1*%
X62975000Y-33280000D03*
%TO.P,U1,24,XL2*%
%TO.N,XL2*%
X62225000Y-33280000D03*
%TO.P,U1,23,I/O*%
%TO.N,unconnected-(U1-I{slash}O-Pad23)*%
X61475000Y-33280000D03*
%TO.P,U1,22,I/O*%
%TO.N,INT_2*%
X60725000Y-33280000D03*
%TO.P,U1,21,I/O*%
%TO.N,INT_1*%
X59975000Y-33280000D03*
%TO.P,U1,20,RTS*%
%TO.N,unconnected-(U1-RTS-Pad20)*%
X59225000Y-33280000D03*
%TO.P,U1,19,TX*%
%TO.N,unconnected-(U1-TX-Pad19)*%
X58475000Y-33280000D03*
%TO.P,U1,18,CTS*%
%TO.N,unconnected-(U1-CTS-Pad18)*%
X57725000Y-33280000D03*
%TO.P,U1,17,RX*%
%TO.N,unconnected-(U1-RX-Pad17)*%
X56975000Y-33280000D03*
D18*
%TO.P,U1,16,GND*%
%TO.N,GND*%
X55550000Y-34030000D03*
%TO.P,U1,15,NFC1*%
%TO.N,unconnected-(U1-NFC1-Pad15)*%
X55550000Y-34780000D03*
%TO.P,U1,14,NFC2*%
%TO.N,unconnected-(U1-NFC2-Pad14)*%
X55550000Y-35530000D03*
%TO.P,U1,13,I/O*%
%TO.N,Net-(TP1-Pad1)*%
X55550000Y-36280000D03*
%TO.P,U1,12*%
%TO.N,unconnected-(U1-Pad12)*%
X55550000Y-37030000D03*
%TO.P,U1,11*%
%TO.N,unconnected-(U1-Pad11)*%
X55550000Y-37780000D03*
%TO.P,U1,10*%
%TO.N,unconnected-(U1-Pad10)*%
X55550000Y-38530000D03*
%TO.P,U1,9,I/O*%
%TO.N,I{slash}O 9*%
X55550000Y-39280000D03*
%TO.P,U1,8*%
%TO.N,unconnected-(U1-Pad8)*%
X55550000Y-40030000D03*
%TO.P,U1,7,nRESET*%
%TO.N,Net-(U1-nRESET)*%
X55550000Y-40780000D03*
%TO.P,U1,6,SWDCLK*%
%TO.N,SWDCLK*%
X55550000Y-41530000D03*
%TO.P,U1,5,SWDIO*%
%TO.N,SWDIO*%
X55550000Y-42280000D03*
%TO.P,U1,4,I/O*%
%TO.N,unconnected-(U1-I{slash}O-Pad4)*%
X55550000Y-43030000D03*
%TO.P,U1,3,MOSI*%
%TO.N,unconnected-(U1-MOSI-Pad3)*%
X55550000Y-43780000D03*
%TO.P,U1,2,MISO*%
%TO.N,unconnected-(U1-MISO-Pad2)*%
X55550000Y-44530000D03*
%TO.P,U1,1,GND*%
%TO.N,GND*%
X55550000Y-45280000D03*
%TD*%
D20*
%TO.P,SW1,1,1*%
%TO.N,I{slash}O 9*%
X47000000Y-47500000D03*
X41000000Y-47500000D03*
%TO.P,SW1,2,2*%
%TO.N,GND*%
X47000000Y-43750000D03*
X41000000Y-43750000D03*
%TD*%
D21*
%TO.P,D1,1,K*%
%TO.N,Net-(D1-K)*%
X54500000Y-29675000D03*
%TO.P,D1,2,A*%
%TO.N,GND*%
X54500000Y-31250000D03*
%TD*%
D22*
%TO.P,Y1,4*%
%TO.N,N/C*%
X62150000Y-23450000D03*
%TO.P,Y1,3*%
X63050000Y-23450000D03*
%TO.P,Y1,2,2*%
%TO.N,XL2*%
X62150000Y-29750000D03*
%TO.P,Y1,1,1*%
%TO.N,XL1*%
X63050000Y-29750000D03*
%TD*%
D23*
%TO.P,J1,N*%
%TO.N,GND*%
X37515000Y-32000000D03*
D24*
%TO.P,J1,P1*%
%TO.N,VCC*%
X48500000Y-32000000D03*
%TO.P,J1,P2*%
X26530000Y-32000000D03*
%TD*%
D16*
%TO.P,C5,1*%
%TO.N,GND*%
X65250000Y-27862500D03*
%TO.P,C5,2*%
%TO.N,XL1*%
X65250000Y-29412500D03*
%TD*%
D25*
%TO.P,U2,1,SDO/SA0*%
%TO.N,GND*%
X52300000Y-23925000D03*
%TO.P,U2,2,SDX*%
X51800000Y-23925000D03*
%TO.P,U2,3,SCX*%
X51300000Y-23925000D03*
%TO.P,U2,4,INT1*%
%TO.N,INT_1*%
X50800000Y-23925000D03*
D26*
%TO.P,U2,5,VDDIO*%
%TO.N,VCC*%
X50637500Y-24587500D03*
%TO.P,U2,6,GND*%
%TO.N,GND*%
X50637500Y-25087500D03*
%TO.P,U2,7,GND*%
X50637500Y-25587500D03*
D25*
%TO.P,U2,8,VDD*%
%TO.N,VCC*%
X50800000Y-26250000D03*
%TO.P,U2,9,INT2*%
%TO.N,INT_2*%
X51300000Y-26250000D03*
%TO.P,U2,10,NC*%
%TO.N,unconnected-(U2-NC-Pad10)*%
X51800000Y-26250000D03*
%TO.P,U2,11,NC*%
%TO.N,unconnected-(U2-NC-Pad11)*%
X52300000Y-26250000D03*
D26*
%TO.P,U2,12,CS*%
%TO.N,Net-(U2-CS)*%
X52462500Y-25587500D03*
%TO.P,U2,13,SCL*%
%TO.N,SCL_1*%
X52462500Y-25087500D03*
%TO.P,U2,14,SDA*%
%TO.N,SDA_1*%
X52462500Y-24587500D03*
%TD*%
D27*
%TO.N,GND*%
X53250000Y-22750000D03*
X60000000Y-26250000D03*
X36250000Y-40750000D03*
X65250000Y-26250000D03*
X64475000Y-36025000D03*
X47000000Y-41750000D03*
X55550000Y-31250000D03*
X30750000Y-32000000D03*
X41000000Y-41750000D03*
X44250000Y-32000000D03*
X49925000Y-29500000D03*
X64280000Y-42280000D03*
%TO.N,VCC*%
X63725000Y-34955000D03*
X49500000Y-40750000D03*
X49500000Y-37250000D03*
%TO.N,SWDCLK*%
X51420000Y-42420000D03*
%TO.N,INT_1*%
X55500000Y-28500000D03*
X55450000Y-23987500D03*
%TO.N,SWDIO*%
X50250000Y-43750000D03*
%TD*%
D28*
%TO.N,INT_1*%
X57957106Y-30500000D02*
X59975000Y-32517894D01*
X59975000Y-32517894D02*
X59975000Y-33280000D01*
X57250000Y-30500000D02*
X57957106Y-30500000D01*
X55500000Y-28750000D02*
X57250000Y-30500000D01*
X55500000Y-28500000D02*
X55500000Y-28750000D01*
%TO.N,Net-(TP1-Pad1)*%
X51780000Y-36280000D02*
X51750000Y-36250000D01*
X55550000Y-36280000D02*
X51780000Y-36280000D01*
D29*
%TO.N,VCC*%
X26500000Y-32030000D02*
X26530000Y-32000000D01*
X26500000Y-43750000D02*
X26500000Y-32030000D01*
X26500000Y-43750000D02*
X26500000Y-44620000D01*
X26500000Y-44620000D02*
X28630000Y-46750000D01*
%TO.N,GND*%
X36250000Y-43750000D02*
X36250000Y-40750000D01*
X36250000Y-46750000D02*
X36250000Y-43750000D01*
D28*
X64600000Y-33255000D02*
X64575000Y-33280000D01*
X49925000Y-25987501D02*
X50325001Y-25587500D01*
D29*
X55550000Y-31250000D02*
X54500000Y-31250000D01*
X64475000Y-32530000D02*
X65725000Y-31280000D01*
X53650000Y-44400000D02*
X54530000Y-45280000D01*
X52300000Y-23700000D02*
X52300000Y-23925000D01*
X54530000Y-45280000D02*
X55550000Y-45280000D01*
X37515000Y-32000000D02*
X30750000Y-32000000D01*
X41000000Y-43750000D02*
X41000000Y-41750000D01*
X51800000Y-23925000D02*
X51375000Y-23925000D01*
D28*
X66650000Y-42280000D02*
X65800000Y-42280000D01*
D29*
X55550000Y-34030000D02*
X55550000Y-31250000D01*
X60000000Y-27775000D02*
X60000000Y-26250000D01*
D28*
X49925000Y-29500000D02*
X49925000Y-25987501D01*
D29*
X64475000Y-36025000D02*
X64475000Y-33280000D01*
X52300000Y-23925000D02*
X51800000Y-23925000D01*
D28*
X64600000Y-33305000D02*
X64375000Y-33530000D01*
X50637500Y-25587500D02*
X50637500Y-25087500D01*
D29*
X47000000Y-41750000D02*
X47000000Y-43750000D01*
X47000000Y-43750000D02*
X47650000Y-44400000D01*
X64475000Y-33280000D02*
X64475000Y-32530000D01*
X44250000Y-32000000D02*
X37515000Y-32000000D01*
X47650000Y-44400000D02*
X53650000Y-44400000D01*
X64280000Y-42280000D02*
X65900000Y-42280000D01*
X35820000Y-35000000D02*
X35790000Y-35030000D01*
X53250000Y-22750000D02*
X52300000Y-23700000D01*
X65250000Y-27775000D02*
X65250000Y-26250000D01*
D28*
X50325001Y-25587500D02*
X50637500Y-25587500D01*
D29*
%TO.N,VCC*%
X26530000Y-31970000D02*
X33500000Y-25000000D01*
D28*
X56300000Y-23000000D02*
X54950000Y-21650000D01*
D29*
X41500000Y-25000000D02*
X48500000Y-32000000D01*
X51562500Y-29687500D02*
X50000000Y-31250000D01*
D28*
X50800000Y-26250000D02*
X50800000Y-27120000D01*
D29*
X63690000Y-33245000D02*
X63725000Y-33280000D01*
X53000000Y-31250000D02*
X50000000Y-31250000D01*
D28*
X63850000Y-33305000D02*
X63825000Y-33280000D01*
D29*
X49500000Y-37250000D02*
X48500000Y-36250000D01*
D28*
X58750000Y-23000000D02*
X56950000Y-23000000D01*
X48500000Y-26362068D02*
X48500000Y-27000000D01*
X51562500Y-27970000D02*
X53970000Y-27970000D01*
X50800000Y-27120000D02*
X51650000Y-27970000D01*
D29*
X51562500Y-27970000D02*
X51562500Y-29687500D01*
X33500000Y-25000000D02*
X41500000Y-25000000D01*
X63725000Y-33280000D02*
X63725000Y-31555000D01*
X50750000Y-40750000D02*
X49500000Y-40750000D01*
D28*
X50637500Y-24587500D02*
X50274568Y-24587500D01*
D29*
X63725000Y-34955000D02*
X63725000Y-33280000D01*
D28*
X48500000Y-24605784D02*
X48500001Y-24605784D01*
X48500000Y-32000000D02*
X48500000Y-27000000D01*
X54950000Y-21650000D02*
X51455785Y-21650000D01*
X63825000Y-34855000D02*
X63725000Y-34955000D01*
D29*
X63725000Y-31555000D02*
X64000000Y-31280000D01*
D28*
X48500000Y-27000000D02*
X48500000Y-24605784D01*
D29*
X50000000Y-31250000D02*
X49250000Y-31250000D01*
D28*
X50274568Y-24587500D02*
X48500000Y-26362068D01*
X63650000Y-33305000D02*
X63625000Y-33280000D01*
X56950000Y-23000000D02*
X56300000Y-23000000D01*
X53970000Y-27970000D02*
X54000000Y-28000000D01*
X48500001Y-24605784D02*
X51455785Y-21650000D01*
D29*
X48500000Y-36250000D02*
X48500000Y-32000000D01*
X49250000Y-31250000D02*
X48500000Y-32000000D01*
X26530000Y-32000000D02*
X26530000Y-31970000D01*
D28*
%TO.N,SCL_1*%
X57600000Y-25550000D02*
X59450000Y-25550000D01*
X65355000Y-22280000D02*
X67075000Y-24000000D01*
X59925000Y-25075000D02*
X59925000Y-23575000D01*
X59450000Y-25550000D02*
X59925000Y-25075000D01*
X67075000Y-24000000D02*
X67075000Y-39729999D01*
X61220000Y-22280000D02*
X65355000Y-22280000D01*
X66774999Y-40030000D02*
X65900000Y-40030000D01*
X67075000Y-39729999D02*
X66774999Y-40030000D01*
X52712500Y-25087500D02*
X56512500Y-25087500D01*
X56950000Y-24900000D02*
X57600000Y-25550000D01*
X59925000Y-23575000D02*
X61220000Y-22280000D01*
X56512500Y-25087500D02*
X56950000Y-24650000D01*
%TO.N,SDA_1*%
X65449975Y-21880000D02*
X67425000Y-23855025D01*
X58100000Y-24250000D02*
X58750000Y-24900000D01*
X55824852Y-24587500D02*
X56162352Y-24250000D01*
X56162352Y-24250000D02*
X58100000Y-24250000D01*
X58750000Y-24900000D02*
X59192674Y-24900000D01*
X59192674Y-24900000D02*
X59525000Y-24567674D01*
X55824852Y-24587500D02*
X52712500Y-24587500D01*
X67425000Y-40129999D02*
X66774999Y-40780000D01*
X60984315Y-21880000D02*
X65449975Y-21880000D01*
X66774999Y-40780000D02*
X65900000Y-40780000D01*
X59525000Y-24567674D02*
X59525000Y-23339315D01*
X59525000Y-23339315D02*
X60984315Y-21880000D01*
X67425000Y-23855025D02*
X67425000Y-40129999D01*
%TO.N,Net-(U1-nRESET)*%
X55550000Y-40780000D02*
X52620000Y-40780000D01*
%TO.N,SWDCLK*%
X52310000Y-41530000D02*
X55450000Y-41530000D01*
X51420000Y-42420000D02*
X52310000Y-41530000D01*
%TO.N,INT_1*%
X54200000Y-22050000D02*
X51621471Y-22050000D01*
X50800000Y-22871471D02*
X50800000Y-23925000D01*
X55450000Y-23300000D02*
X54200000Y-22050000D01*
X51621471Y-22050000D02*
X50800000Y-22871471D01*
X55450000Y-23987500D02*
X55450000Y-23300000D01*
%TO.N,SWDIO*%
X52497818Y-42280000D02*
X55450000Y-42280000D01*
X51027818Y-43750000D02*
X52497818Y-42280000D01*
X50250000Y-43750000D02*
X51027818Y-43750000D01*
%TO.N,XL2*%
X60000000Y-29412500D02*
X62032500Y-29412500D01*
X62150000Y-29750000D02*
X62225000Y-29825000D01*
X62032500Y-29412500D02*
X62150000Y-29530000D01*
X62225000Y-29825000D02*
X62225000Y-33280000D01*
%TO.N,XL1*%
X63050000Y-33255000D02*
X63075000Y-33280000D01*
X63167500Y-29412500D02*
X63050000Y-29530000D01*
X62930000Y-33475000D02*
X62875000Y-33530000D01*
X65250000Y-29412500D02*
X63167500Y-29412500D01*
X62975000Y-29825000D02*
X62975000Y-33280000D01*
X62930000Y-33135000D02*
X63075000Y-33280000D01*
X63050000Y-29750000D02*
X62975000Y-29825000D01*
%TO.N,INT_2*%
X60625000Y-33530000D02*
X60625000Y-32605000D01*
X55369999Y-27050000D02*
X60725000Y-32405001D01*
X51737068Y-27050000D02*
X55369999Y-27050000D01*
X51300000Y-26250000D02*
X51300000Y-26612932D01*
X60725000Y-32405001D02*
X60725000Y-33280000D01*
X51300000Y-26612932D02*
X51737068Y-27050000D01*
%TO.N,Net-(D1-K)*%
X53075000Y-29675000D02*
X53000000Y-29600000D01*
X54500000Y-29675000D02*
X53075000Y-29675000D01*
X54425000Y-29600000D02*
X54500000Y-29675000D01*
%TO.N,Net-(U2-CS)*%
X53237500Y-25587500D02*
X52462500Y-25587500D01*
X54000000Y-26350000D02*
X53237500Y-25587500D01*
%TO.N,I{slash}O 9*%
X48470000Y-39280000D02*
X45250000Y-42500000D01*
X47000000Y-47500000D02*
X43750000Y-47500000D01*
X45250000Y-42500000D02*
X45250000Y-46000000D01*
X55550000Y-39280000D02*
X48470000Y-39280000D01*
X45250000Y-46000000D02*
X43750000Y-47500000D01*
X43750000Y-47500000D02*
X41000000Y-47500000D01*
%TD*%
%TA.AperFunction,NonConductor*%
G36*
X60282256Y-21520185D02*
G01*
X60328011Y-21572989D01*
X60337955Y-21642147D01*
X60308930Y-21705703D01*
X60302898Y-21712181D01*
X59566501Y-22448577D01*
X59505178Y-22482062D01*
X59435486Y-22477078D01*
X59414670Y-22467013D01*
X59314606Y-22406522D01*
X59274055Y-22393886D01*
X59152196Y-22355914D01*
X59152194Y-22355913D01*
X59152192Y-22355913D01*
X59102778Y-22351423D01*
X59081616Y-22349500D01*
X58418384Y-22349500D01*
X58347804Y-22355914D01*
X58253731Y-22385227D01*
X58225945Y-22393886D01*
X58189056Y-22399500D01*
X57510944Y-22399500D01*
X57474055Y-22393886D01*
X57458373Y-22388999D01*
X57352196Y-22355914D01*
X57281616Y-22349500D01*
X56618384Y-22349500D01*
X56605265Y-22350692D01*
X56566538Y-22354211D01*
X56497992Y-22340674D01*
X56467636Y-22318401D01*
X55861416Y-21712181D01*
X55827931Y-21650858D01*
X55832915Y-21581166D01*
X55874787Y-21525233D01*
X55940251Y-21500816D01*
X55949097Y-21500500D01*
X60215217Y-21500500D01*
X60282256Y-21520185D01*
G37*
%TD.AperFunction*%
%TA.AperFunction,NonConductor*%
G36*
X52126520Y-22670185D02*
G01*
X52172275Y-22722989D01*
X52182219Y-22792147D01*
X52153194Y-22855703D01*
X52147162Y-22862181D01*
X51933662Y-23075681D01*
X51872339Y-23109166D01*
X51845981Y-23112000D01*
X51708068Y-23112000D01*
X51641029Y-23092315D01*
X51595274Y-23039511D01*
X51585330Y-22970353D01*
X51614355Y-22906797D01*
X51620387Y-22900319D01*
X51833887Y-22686819D01*
X51895210Y-22653334D01*
X51921568Y-22650500D01*
X52059481Y-22650500D01*
X52126520Y-22670185D01*
G37*
%TD.AperFunction*%
%TA.AperFunction,NonConductor*%
G36*
X67692539Y-21520185D02*
G01*
X67738294Y-21572989D01*
X67749500Y-21624500D01*
X67749500Y-23030928D01*
X67729815Y-23097967D01*
X67677011Y-23143722D01*
X67607853Y-23153666D01*
X67544297Y-23124641D01*
X67537819Y-23118609D01*
X66131391Y-21712181D01*
X66097906Y-21650858D01*
X66102890Y-21581166D01*
X66144762Y-21525233D01*
X66210226Y-21500816D01*
X66219072Y-21500500D01*
X67625500Y-21500500D01*
X67692539Y-21520185D01*
G37*
%TD.AperFunction*%
%TA.AperFunction,NonConductor*%
G36*
X54194881Y-22902262D02*
G01*
X54225368Y-22924603D01*
X54737070Y-23436305D01*
X54770555Y-23497628D01*
X54765571Y-23567320D01*
X54754384Y-23589956D01*
X54724211Y-23637977D01*
X54664630Y-23808250D01*
X54656898Y-23876883D01*
X54629832Y-23941297D01*
X54572237Y-23980852D01*
X54533678Y-23987000D01*
X53303019Y-23987000D01*
X53235980Y-23967315D01*
X53190225Y-23914511D01*
X53180281Y-23845353D01*
X53209306Y-23781797D01*
X53215329Y-23775326D01*
X53449292Y-23541363D01*
X53496013Y-23512007D01*
X53599522Y-23475789D01*
X53752262Y-23379816D01*
X53879816Y-23252262D01*
X53975789Y-23099522D01*
X54020645Y-22971329D01*
X54061367Y-22914554D01*
X54126319Y-22888806D01*
X54194881Y-22902262D01*
G37*
%TD.AperFunction*%
%TA.AperFunction,NonConductor*%
G36*
X60719334Y-23732415D02*
G01*
X60775267Y-23774287D01*
X60799684Y-23839751D01*
X60800000Y-23848597D01*
X60800000Y-25618560D01*
X60780315Y-25685599D01*
X60727511Y-25731354D01*
X60658353Y-25741298D01*
X60594797Y-25712273D01*
X60588319Y-25706241D01*
X60502262Y-25620184D01*
X60457649Y-25592152D01*
X60411358Y-25539817D01*
X60400710Y-25470764D01*
X60416234Y-25425158D01*
X60484577Y-25306784D01*
X60518205Y-25181284D01*
X60525500Y-25154058D01*
X60525500Y-24995943D01*
X60525500Y-23875097D01*
X60545185Y-23808058D01*
X60561819Y-23787416D01*
X60588319Y-23760916D01*
X60649642Y-23727431D01*
X60719334Y-23732415D01*
G37*
%TD.AperFunction*%
%TA.AperFunction,NonConductor*%
G36*
X56323204Y-25705882D02*
G01*
X56385394Y-25743478D01*
X56547804Y-25794086D01*
X56618384Y-25800500D01*
X56949903Y-25800500D01*
X57016942Y-25820185D01*
X57037584Y-25836819D01*
X57115139Y-25914374D01*
X57115149Y-25914385D01*
X57119479Y-25918715D01*
X57119480Y-25918716D01*
X57231284Y-26030520D01*
X57300958Y-26070745D01*
X57318095Y-26080639D01*
X57318097Y-26080641D01*
X57356151Y-26102611D01*
X57368215Y-26109577D01*
X57520943Y-26150501D01*
X57520946Y-26150501D01*
X57686653Y-26150501D01*
X57686669Y-26150500D01*
X59072411Y-26150500D01*
X59139450Y-26170185D01*
X59185205Y-26222989D01*
X59195631Y-26260617D01*
X59214630Y-26429249D01*
X59214631Y-26429254D01*
X59274212Y-26599525D01*
X59280492Y-26609519D01*
X59299500Y-26675493D01*
X59299500Y-27010625D01*
X59279815Y-27077664D01*
X59263182Y-27098306D01*
X59177029Y-27184459D01*
X59088001Y-27328794D01*
X59087996Y-27328805D01*
X59034651Y-27489790D01*
X59024500Y-27589147D01*
X59024500Y-28135837D01*
X59024501Y-28135855D01*
X59034650Y-28235207D01*
X59034651Y-28235210D01*
X59087996Y-28396194D01*
X59088001Y-28396205D01*
X59177029Y-28540540D01*
X59177032Y-28540544D01*
X59186307Y-28549819D01*
X59219792Y-28611142D01*
X59214808Y-28680834D01*
X59186307Y-28725181D01*
X59177032Y-28734455D01*
X59177029Y-28734459D01*
X59088001Y-28878794D01*
X59087996Y-28878805D01*
X59034651Y-29039790D01*
X59024500Y-29139147D01*
X59024500Y-29555904D01*
X59004815Y-29622943D01*
X58952011Y-29668698D01*
X58882853Y-29678642D01*
X58819297Y-29649617D01*
X58812819Y-29643585D01*
X55857589Y-26688355D01*
X55857587Y-26688352D01*
X55738716Y-26569481D01*
X55738715Y-26569480D01*
X55641823Y-26513540D01*
X55641822Y-26513539D01*
X55601782Y-26490422D01*
X55545880Y-26475443D01*
X55449056Y-26449499D01*
X55290942Y-26449499D01*
X55283346Y-26449499D01*
X55283330Y-26449500D01*
X55099500Y-26449500D01*
X55032461Y-26429815D01*
X54986706Y-26377011D01*
X54975500Y-26325500D01*
X54975500Y-26093386D01*
X54973443Y-26070750D01*
X54969086Y-26022804D01*
X54918478Y-25860394D01*
X54918476Y-25860391D01*
X54916246Y-25853233D01*
X54918185Y-25852628D01*
X54910037Y-25793688D01*
X54939406Y-25730290D01*
X54998388Y-25692835D01*
X55032677Y-25688000D01*
X56259055Y-25688000D01*
X56323204Y-25705882D01*
G37*
%TD.AperFunction*%
%TA.AperFunction,NonConductor*%
G36*
X50523727Y-21520185D02*
G01*
X50569482Y-21572989D01*
X50579426Y-21642147D01*
X50550401Y-21705703D01*
X50544369Y-21712181D01*
X48134410Y-24122138D01*
X48134395Y-24122151D01*
X48134396Y-24122152D01*
X48019478Y-24237070D01*
X48019475Y-24237074D01*
X47940426Y-24373993D01*
X47940423Y-24374000D01*
X47899500Y-24526727D01*
X47899500Y-26275398D01*
X47899499Y-26275416D01*
X47899499Y-26451114D01*
X47899500Y-26451127D01*
X47899500Y-28839261D01*
X47879815Y-28906300D01*
X47827011Y-28952055D01*
X47788754Y-28962551D01*
X47757516Y-28965909D01*
X47622671Y-29016202D01*
X47622664Y-29016206D01*
X47507455Y-29102452D01*
X47507452Y-29102455D01*
X47421206Y-29217664D01*
X47421202Y-29217671D01*
X47370908Y-29352517D01*
X47364501Y-29412116D01*
X47364501Y-29412123D01*
X47364500Y-29412135D01*
X47364500Y-29574480D01*
X47344815Y-29641519D01*
X47292011Y-29687274D01*
X47222853Y-29697218D01*
X47159297Y-29668193D01*
X47152819Y-29662161D01*
X41946545Y-24455887D01*
X41831807Y-24379222D01*
X41704332Y-24326421D01*
X41704322Y-24326418D01*
X41568996Y-24299500D01*
X41568994Y-24299500D01*
X41568993Y-24299500D01*
X33568994Y-24299500D01*
X33431007Y-24299500D01*
X33431005Y-24299500D01*
X33295677Y-24326418D01*
X33295667Y-24326421D01*
X33168192Y-24379222D01*
X33053454Y-24455887D01*
X33053453Y-24455888D01*
X27877180Y-29632162D01*
X27815857Y-29665647D01*
X27746165Y-29660663D01*
X27690232Y-29618791D01*
X27665815Y-29553327D01*
X27665499Y-29544481D01*
X27665499Y-29412129D01*
X27665498Y-29412123D01*
X27665497Y-29412116D01*
X27659091Y-29352517D01*
X27615030Y-29234384D01*
X27608797Y-29217671D01*
X27608793Y-29217664D01*
X27522547Y-29102455D01*
X27522544Y-29102452D01*
X27407335Y-29016206D01*
X27407328Y-29016202D01*
X27272482Y-28965908D01*
X27272483Y-28965908D01*
X27212883Y-28959501D01*
X27212881Y-28959500D01*
X27212873Y-28959500D01*
X27212864Y-28959500D01*
X25847129Y-28959500D01*
X25847123Y-28959501D01*
X25787516Y-28965908D01*
X25652671Y-29016202D01*
X25652664Y-29016206D01*
X25537455Y-29102452D01*
X25537452Y-29102455D01*
X25473766Y-29187529D01*
X25417832Y-29229400D01*
X25348141Y-29234384D01*
X25286818Y-29200898D01*
X25253334Y-29139575D01*
X25250500Y-29113218D01*
X25250500Y-21624500D01*
X25270185Y-21557461D01*
X25322989Y-21511706D01*
X25374500Y-21500500D01*
X50456688Y-21500500D01*
X50523727Y-21520185D01*
G37*
%TD.AperFunction*%
%TA.AperFunction,NonConductor*%
G36*
X64377035Y-30032685D02*
G01*
X64415535Y-30071904D01*
X64427031Y-30090543D01*
X64443947Y-30107459D01*
X64477432Y-30168782D01*
X64472448Y-30238474D01*
X64430576Y-30294407D01*
X64365112Y-30318824D01*
X64329688Y-30314399D01*
X64329331Y-30316068D01*
X64322714Y-30314651D01*
X64223352Y-30304500D01*
X64223345Y-30304500D01*
X63974500Y-30304500D01*
X63907461Y-30284815D01*
X63861706Y-30232011D01*
X63850500Y-30180500D01*
X63850500Y-30137000D01*
X63870185Y-30069961D01*
X63922989Y-30024206D01*
X63974500Y-30013000D01*
X64309996Y-30013000D01*
X64377035Y-30032685D01*
G37*
%TD.AperFunction*%
%TA.AperFunction,NonConductor*%
G36*
X65121942Y-22900185D02*
G01*
X65142584Y-22916819D01*
X66438181Y-24212416D01*
X66471666Y-24273739D01*
X66474500Y-24300097D01*
X66474500Y-30454126D01*
X66454815Y-30521165D01*
X66402011Y-30566920D01*
X66332853Y-30576864D01*
X66269297Y-30547839D01*
X66262819Y-30541807D01*
X66178044Y-30457032D01*
X66178040Y-30457029D01*
X66033701Y-30367999D01*
X66031764Y-30367096D01*
X66030657Y-30366121D01*
X66027550Y-30364205D01*
X66027877Y-30363674D01*
X65979322Y-30320927D01*
X65960166Y-30253735D01*
X65980378Y-30186852D01*
X65996472Y-30167039D01*
X66072968Y-30090544D01*
X66162003Y-29946197D01*
X66215349Y-29785208D01*
X66225500Y-29685845D01*
X66225499Y-29139156D01*
X66222849Y-29113218D01*
X66215349Y-29039792D01*
X66215348Y-29039789D01*
X66201414Y-28997738D01*
X66162003Y-28878803D01*
X66161999Y-28878797D01*
X66161998Y-28878794D01*
X66072970Y-28734459D01*
X66072967Y-28734455D01*
X66063693Y-28725181D01*
X66030208Y-28663858D01*
X66035192Y-28594166D01*
X66063693Y-28549819D01*
X66072968Y-28540544D01*
X66162003Y-28396197D01*
X66215349Y-28235208D01*
X66225500Y-28135845D01*
X66225499Y-27589156D01*
X66223776Y-27572292D01*
X66215349Y-27489792D01*
X66215348Y-27489789D01*
X66185564Y-27399906D01*
X66162003Y-27328803D01*
X66161999Y-27328797D01*
X66161998Y-27328794D01*
X66072970Y-27184459D01*
X66072969Y-27184458D01*
X66072968Y-27184456D01*
X65986818Y-27098306D01*
X65953334Y-27036982D01*
X65950500Y-27010625D01*
X65950500Y-26675493D01*
X65969508Y-26609519D01*
X65975787Y-26599525D01*
X65975786Y-26599525D01*
X65975789Y-26599522D01*
X66035368Y-26429255D01*
X66040151Y-26386803D01*
X66055565Y-26250003D01*
X66055565Y-26249996D01*
X66035369Y-26070750D01*
X66035368Y-26070745D01*
X66018593Y-26022804D01*
X65975789Y-25900478D01*
X65974963Y-25899164D01*
X65933884Y-25833787D01*
X65879816Y-25747738D01*
X65752262Y-25620184D01*
X65749677Y-25618560D01*
X65599523Y-25524211D01*
X65429254Y-25464631D01*
X65429249Y-25464630D01*
X65250004Y-25444435D01*
X65249996Y-25444435D01*
X65070750Y-25464630D01*
X65070745Y-25464631D01*
X64900476Y-25524211D01*
X64747737Y-25620184D01*
X64615260Y-25752662D01*
X64614151Y-25751553D01*
X64563747Y-25786925D01*
X64493935Y-25789768D01*
X64433669Y-25754417D01*
X64402082Y-25692094D01*
X64400000Y-25669468D01*
X64400000Y-23004500D01*
X64419685Y-22937461D01*
X64472489Y-22891706D01*
X64524000Y-22880500D01*
X65054903Y-22880500D01*
X65121942Y-22900185D01*
G37*
%TD.AperFunction*%
%TA.AperFunction,NonConductor*%
G36*
X55680703Y-29780384D02*
G01*
X55687177Y-29786412D01*
X55972668Y-30071904D01*
X56255795Y-30355031D01*
X56289280Y-30416354D01*
X56286775Y-30478706D01*
X56263974Y-30553873D01*
X56263103Y-30558251D01*
X56230712Y-30620159D01*
X56169993Y-30654727D01*
X56100224Y-30650981D01*
X56057885Y-30624299D01*
X56057705Y-30624525D01*
X56055675Y-30622906D01*
X56053807Y-30621729D01*
X56052262Y-30620184D01*
X55899523Y-30524211D01*
X55729254Y-30464631D01*
X55729249Y-30464630D01*
X55550004Y-30444435D01*
X55550003Y-30444435D01*
X55550001Y-30444435D01*
X55550000Y-30444435D01*
X55527770Y-30446939D01*
X55493282Y-30450825D01*
X55424460Y-30438769D01*
X55373081Y-30391419D01*
X55355458Y-30323808D01*
X55373860Y-30262510D01*
X55412549Y-30199787D01*
X55465436Y-30040185D01*
X55475500Y-29941674D01*
X55475500Y-29874097D01*
X55495185Y-29807058D01*
X55547989Y-29761303D01*
X55617147Y-29751359D01*
X55680703Y-29780384D01*
G37*
%TD.AperFunction*%
%TA.AperFunction,NonConductor*%
G36*
X61292539Y-30032685D02*
G01*
X61338294Y-30085489D01*
X61349500Y-30137000D01*
X61349500Y-30265701D01*
X61352401Y-30302567D01*
X61352402Y-30302573D01*
X61398254Y-30460393D01*
X61398255Y-30460396D01*
X61398256Y-30460398D01*
X61410635Y-30481329D01*
X61481917Y-30601862D01*
X61481923Y-30601870D01*
X61588181Y-30708128D01*
X61621666Y-30769451D01*
X61624500Y-30795809D01*
X61624500Y-31780500D01*
X61604815Y-31847539D01*
X61552011Y-31893294D01*
X61500500Y-31904500D01*
X61259298Y-31904500D01*
X61222436Y-31907401D01*
X61222421Y-31907404D01*
X61179874Y-31919764D01*
X61110005Y-31919563D01*
X61057602Y-31888368D01*
X59743914Y-30574680D01*
X59710429Y-30513357D01*
X59715413Y-30443665D01*
X59757285Y-30387732D01*
X59822749Y-30363315D01*
X59831573Y-30362999D01*
X60298344Y-30362999D01*
X60298352Y-30362998D01*
X60298355Y-30362998D01*
X60376347Y-30355031D01*
X60397708Y-30352849D01*
X60558697Y-30299503D01*
X60703044Y-30210468D01*
X60822968Y-30090544D01*
X60834465Y-30071903D01*
X60886412Y-30025179D01*
X60940004Y-30013000D01*
X61225500Y-30013000D01*
X61292539Y-30032685D01*
G37*
%TD.AperFunction*%
%TA.AperFunction,NonConductor*%
G36*
X58066431Y-31468035D02*
G01*
X58099600Y-31491729D01*
X58303711Y-31695840D01*
X58337196Y-31757163D01*
X58332212Y-31826855D01*
X58290340Y-31882788D01*
X58228631Y-31906059D01*
X58228669Y-31906263D01*
X58227550Y-31906467D01*
X58225772Y-31907138D01*
X58222442Y-31907400D01*
X58222432Y-31907401D01*
X58222431Y-31907402D01*
X58222428Y-31907402D01*
X58222427Y-31907403D01*
X58134593Y-31932920D01*
X58065407Y-31932920D01*
X57988091Y-31910459D01*
X57977569Y-31907402D01*
X57977566Y-31907401D01*
X57977563Y-31907401D01*
X57940701Y-31904500D01*
X57940694Y-31904500D01*
X57707534Y-31904500D01*
X57640495Y-31884815D01*
X57594740Y-31832011D01*
X57584796Y-31762853D01*
X57613821Y-31699297D01*
X57649081Y-31671142D01*
X57808532Y-31585913D01*
X57808538Y-31585910D01*
X57933255Y-31483556D01*
X57997563Y-31456244D01*
X58066431Y-31468035D01*
G37*
%TD.AperFunction*%
%TA.AperFunction,NonConductor*%
G36*
X56489860Y-31416613D02*
G01*
X56528519Y-31447970D01*
X56539116Y-31460883D01*
X56691460Y-31585909D01*
X56691467Y-31585913D01*
X56850919Y-31671142D01*
X56900763Y-31720104D01*
X56916224Y-31788242D01*
X56892393Y-31853921D01*
X56836835Y-31896290D01*
X56792466Y-31904500D01*
X56759298Y-31904500D01*
X56722432Y-31907401D01*
X56722426Y-31907402D01*
X56564606Y-31953254D01*
X56564605Y-31953254D01*
X56437620Y-32028352D01*
X56369896Y-32045534D01*
X56303634Y-32023373D01*
X56259871Y-31968907D01*
X56250500Y-31921619D01*
X56250500Y-31675493D01*
X56269508Y-31609519D01*
X56275787Y-31599525D01*
X56275786Y-31599525D01*
X56275789Y-31599522D01*
X56315624Y-31485679D01*
X56356346Y-31428904D01*
X56421299Y-31403157D01*
X56489860Y-31416613D01*
G37*
%TD.AperFunction*%
%TA.AperFunction,NonConductor*%
G36*
X66393834Y-31989692D02*
G01*
X66449767Y-32031564D01*
X66474184Y-32097028D01*
X66474500Y-32105874D01*
X66474500Y-33105500D01*
X66454815Y-33172539D01*
X66402011Y-33218294D01*
X66350500Y-33229500D01*
X65399500Y-33229500D01*
X65332461Y-33209815D01*
X65286706Y-33157011D01*
X65275500Y-33105500D01*
X65275500Y-32771518D01*
X65295185Y-32704479D01*
X65311815Y-32683841D01*
X65705187Y-32290468D01*
X65766510Y-32256984D01*
X65780267Y-32254792D01*
X65841528Y-32248534D01*
X65872708Y-32245349D01*
X66033697Y-32192003D01*
X66178044Y-32102968D01*
X66262819Y-32018193D01*
X66324142Y-31984708D01*
X66393834Y-31989692D01*
G37*
%TD.AperFunction*%
%TA.AperFunction,NonConductor*%
G36*
X54117539Y-39900185D02*
G01*
X54163294Y-39952989D01*
X54174500Y-40004500D01*
X54174500Y-40055500D01*
X54154815Y-40122539D01*
X54102011Y-40168294D01*
X54050500Y-40179500D01*
X53309851Y-40179500D01*
X53242812Y-40159815D01*
X53203735Y-40119651D01*
X53172904Y-40068651D01*
X53155067Y-40001096D01*
X53176584Y-39934622D01*
X53230624Y-39890334D01*
X53279020Y-39880500D01*
X54050500Y-39880500D01*
X54117539Y-39900185D01*
G37*
%TD.AperFunction*%
%TA.AperFunction,NonConductor*%
G36*
X67668834Y-40837913D02*
G01*
X67724767Y-40879785D01*
X67749184Y-40945249D01*
X67749500Y-40954095D01*
X67749500Y-42575500D01*
X67729815Y-42642539D01*
X67677011Y-42688294D01*
X67625500Y-42699500D01*
X67389253Y-42699500D01*
X67322214Y-42679815D01*
X67276459Y-42627011D01*
X67266515Y-42557853D01*
X67270176Y-42540908D01*
X67272597Y-42532573D01*
X67272598Y-42532567D01*
X67273210Y-42524787D01*
X67275500Y-42495694D01*
X67275500Y-42064306D01*
X67272598Y-42027431D01*
X67247079Y-41939595D01*
X67247079Y-41870404D01*
X67248025Y-41867147D01*
X67272598Y-41782569D01*
X67275500Y-41745694D01*
X67275500Y-41314306D01*
X67272598Y-41277431D01*
X67260235Y-41234877D01*
X67260434Y-41165010D01*
X67291628Y-41112604D01*
X67537820Y-40866413D01*
X67599142Y-40832929D01*
X67668834Y-40837913D01*
G37*
%TD.AperFunction*%
%TA.AperFunction,NonConductor*%
G36*
X57472431Y-34652598D02*
G01*
X57509306Y-34655500D01*
X57509314Y-34655500D01*
X57940686Y-34655500D01*
X57940694Y-34655500D01*
X57977569Y-34652598D01*
X58065405Y-34627079D01*
X58134595Y-34627079D01*
X58222431Y-34652598D01*
X58259306Y-34655500D01*
X58259314Y-34655500D01*
X58690686Y-34655500D01*
X58690694Y-34655500D01*
X58727569Y-34652598D01*
X58815405Y-34627079D01*
X58884595Y-34627079D01*
X58972431Y-34652598D01*
X59009306Y-34655500D01*
X59009314Y-34655500D01*
X59440686Y-34655500D01*
X59440694Y-34655500D01*
X59477569Y-34652598D01*
X59565405Y-34627079D01*
X59634595Y-34627079D01*
X59722431Y-34652598D01*
X59759306Y-34655500D01*
X59759314Y-34655500D01*
X60190686Y-34655500D01*
X60190694Y-34655500D01*
X60227569Y-34652598D01*
X60315405Y-34627079D01*
X60384595Y-34627079D01*
X60472431Y-34652598D01*
X60509306Y-34655500D01*
X60509314Y-34655500D01*
X60940686Y-34655500D01*
X60940694Y-34655500D01*
X60977569Y-34652598D01*
X61065405Y-34627079D01*
X61134595Y-34627079D01*
X61222431Y-34652598D01*
X61259306Y-34655500D01*
X61259314Y-34655500D01*
X61690686Y-34655500D01*
X61690694Y-34655500D01*
X61727569Y-34652598D01*
X61815405Y-34627079D01*
X61884595Y-34627079D01*
X61972431Y-34652598D01*
X62009306Y-34655500D01*
X62009314Y-34655500D01*
X62440686Y-34655500D01*
X62440694Y-34655500D01*
X62477569Y-34652598D01*
X62565405Y-34627079D01*
X62634595Y-34627079D01*
X62722431Y-34652598D01*
X62759306Y-34655500D01*
X62814424Y-34655500D01*
X62881463Y-34675185D01*
X62927218Y-34727989D01*
X62937644Y-34793383D01*
X62919435Y-34954996D01*
X62919435Y-34955003D01*
X62939630Y-35134249D01*
X62939631Y-35134254D01*
X62999211Y-35304523D01*
X63058653Y-35399123D01*
X63095184Y-35457262D01*
X63222738Y-35584816D01*
X63282774Y-35622539D01*
X63373426Y-35679500D01*
X63375478Y-35680789D01*
X63545745Y-35740368D01*
X63576332Y-35743814D01*
X63640743Y-35770879D01*
X63680300Y-35828473D01*
X63685668Y-35880917D01*
X63669435Y-36024995D01*
X63669435Y-36025003D01*
X63689630Y-36204249D01*
X63689631Y-36204254D01*
X63749211Y-36374523D01*
X63814636Y-36478645D01*
X63845184Y-36527262D01*
X63972738Y-36654816D01*
X63973031Y-36655000D01*
X64120620Y-36747737D01*
X64125478Y-36750789D01*
X64290498Y-36808532D01*
X64295745Y-36810368D01*
X64295749Y-36810369D01*
X64386607Y-36820605D01*
X64414383Y-36823735D01*
X64478797Y-36850801D01*
X64518352Y-36908395D01*
X64524500Y-36946955D01*
X64524500Y-37245701D01*
X64527401Y-37282563D01*
X64527401Y-37282566D01*
X64527402Y-37282569D01*
X64527403Y-37282572D01*
X64552920Y-37370407D01*
X64552920Y-37439593D01*
X64527403Y-37527427D01*
X64527401Y-37527436D01*
X64524500Y-37564298D01*
X64524500Y-37995701D01*
X64527401Y-38032563D01*
X64527401Y-38032566D01*
X64527402Y-38032569D01*
X64530459Y-38043091D01*
X64552920Y-38120407D01*
X64552920Y-38189593D01*
X64527403Y-38277427D01*
X64527401Y-38277436D01*
X64524500Y-38314298D01*
X64524500Y-38745701D01*
X64527401Y-38782563D01*
X64527401Y-38782566D01*
X64527402Y-38782569D01*
X64527403Y-38782572D01*
X64552920Y-38870407D01*
X64552920Y-38939593D01*
X64527403Y-39027427D01*
X64527401Y-39027436D01*
X64524500Y-39064298D01*
X64524500Y-39495701D01*
X64527401Y-39532563D01*
X64527401Y-39532566D01*
X64527402Y-39532569D01*
X64527403Y-39532572D01*
X64552920Y-39620407D01*
X64552920Y-39689593D01*
X64527403Y-39777427D01*
X64527401Y-39777436D01*
X64524500Y-39814298D01*
X64524500Y-40245701D01*
X64527401Y-40282563D01*
X64527401Y-40282566D01*
X64527402Y-40282569D01*
X64527403Y-40282572D01*
X64552920Y-40370407D01*
X64552920Y-40439593D01*
X64527403Y-40527427D01*
X64527401Y-40527436D01*
X64524500Y-40564298D01*
X64524500Y-40995701D01*
X64527401Y-41032563D01*
X64527401Y-41032566D01*
X64527402Y-41032569D01*
X64527403Y-41032572D01*
X64552920Y-41120407D01*
X64552920Y-41189593D01*
X64527403Y-41277427D01*
X64527401Y-41277436D01*
X64524500Y-41314298D01*
X64524500Y-41363227D01*
X64504815Y-41430266D01*
X64452011Y-41476021D01*
X64386617Y-41486447D01*
X64280004Y-41474435D01*
X64279996Y-41474435D01*
X64100750Y-41494630D01*
X64100745Y-41494631D01*
X63930476Y-41554211D01*
X63777737Y-41650184D01*
X63650184Y-41777737D01*
X63554211Y-41930476D01*
X63494631Y-42100745D01*
X63494630Y-42100750D01*
X63474435Y-42279996D01*
X63474435Y-42280003D01*
X63494630Y-42459249D01*
X63494632Y-42459257D01*
X63520977Y-42534546D01*
X63524538Y-42604324D01*
X63489809Y-42664952D01*
X63427816Y-42697179D01*
X63403935Y-42699500D01*
X57134106Y-42699500D01*
X57064714Y-42718093D01*
X56994864Y-42716430D01*
X56937002Y-42677266D01*
X56909499Y-42613037D01*
X56913546Y-42563723D01*
X56922598Y-42532569D01*
X56925500Y-42495694D01*
X56925500Y-42064306D01*
X56922598Y-42027431D01*
X56897079Y-41939595D01*
X56897079Y-41870404D01*
X56898025Y-41867147D01*
X56922598Y-41782569D01*
X56925500Y-41745694D01*
X56925500Y-41314306D01*
X56922598Y-41277431D01*
X56897079Y-41189595D01*
X56897079Y-41120404D01*
X56899745Y-41111227D01*
X56922598Y-41032569D01*
X56925500Y-40995694D01*
X56925500Y-40564306D01*
X56922598Y-40527431D01*
X56897079Y-40439595D01*
X56897079Y-40370404D01*
X56922598Y-40282569D01*
X56925500Y-40245694D01*
X56925500Y-39814306D01*
X56922598Y-39777431D01*
X56897079Y-39689595D01*
X56897079Y-39620404D01*
X56922598Y-39532569D01*
X56925500Y-39495694D01*
X56925500Y-39064306D01*
X56922598Y-39027431D01*
X56897079Y-38939595D01*
X56897079Y-38870404D01*
X56922598Y-38782569D01*
X56925500Y-38745694D01*
X56925500Y-38314306D01*
X56922598Y-38277431D01*
X56897079Y-38189595D01*
X56897079Y-38120404D01*
X56922598Y-38032569D01*
X56925500Y-37995694D01*
X56925500Y-37564306D01*
X56922598Y-37527431D01*
X56897079Y-37439595D01*
X56897079Y-37370404D01*
X56922598Y-37282569D01*
X56925500Y-37245694D01*
X56925500Y-36814306D01*
X56922598Y-36777431D01*
X56897079Y-36689595D01*
X56897079Y-36620404D01*
X56902980Y-36600093D01*
X56922598Y-36532569D01*
X56925500Y-36495694D01*
X56925500Y-36064306D01*
X56922598Y-36027431D01*
X56897079Y-35939595D01*
X56897079Y-35870404D01*
X56910605Y-35823848D01*
X56922598Y-35782569D01*
X56925500Y-35745694D01*
X56925500Y-35314306D01*
X56922598Y-35277431D01*
X56897079Y-35189595D01*
X56897079Y-35120404D01*
X56912070Y-35068806D01*
X56922598Y-35032569D01*
X56925500Y-34995694D01*
X56925500Y-34779500D01*
X56945185Y-34712461D01*
X56997989Y-34666706D01*
X57049500Y-34655500D01*
X57190686Y-34655500D01*
X57190694Y-34655500D01*
X57227569Y-34652598D01*
X57315405Y-34627079D01*
X57384595Y-34627079D01*
X57472431Y-34652598D01*
G37*
%TD.AperFunction*%
%TA.AperFunction,NonConductor*%
G36*
X46218834Y-42482915D02*
G01*
X46274767Y-42524787D01*
X46299184Y-42590251D01*
X46299500Y-42599097D01*
X46299500Y-42837819D01*
X46279815Y-42904858D01*
X46249812Y-42937085D01*
X46142452Y-43017455D01*
X46073766Y-43109208D01*
X46017832Y-43151079D01*
X45948141Y-43156063D01*
X45886818Y-43122577D01*
X45853334Y-43061254D01*
X45850500Y-43034897D01*
X45850500Y-42800097D01*
X45870185Y-42733058D01*
X45886819Y-42712416D01*
X46087819Y-42511416D01*
X46149142Y-42477931D01*
X46218834Y-42482915D01*
G37*
%TD.AperFunction*%
%TA.AperFunction,NonConductor*%
G36*
X49015818Y-39900185D02*
G01*
X49061573Y-39952989D01*
X49071517Y-40022147D01*
X49042492Y-40085703D01*
X49014752Y-40109493D01*
X48997740Y-40120182D01*
X48997737Y-40120184D01*
X48870184Y-40247737D01*
X48774211Y-40400476D01*
X48714631Y-40570745D01*
X48714630Y-40570750D01*
X48694435Y-40749996D01*
X48694435Y-40750003D01*
X48714630Y-40929249D01*
X48714631Y-40929254D01*
X48774211Y-41099523D01*
X48867341Y-41247737D01*
X48870184Y-41252262D01*
X48997738Y-41379816D01*
X49078029Y-41430266D01*
X49150474Y-41475787D01*
X49150478Y-41475789D01*
X49269573Y-41517462D01*
X49320745Y-41535368D01*
X49320750Y-41535369D01*
X49499996Y-41555565D01*
X49500000Y-41555565D01*
X49500004Y-41555565D01*
X49679249Y-41535369D01*
X49679252Y-41535368D01*
X49679255Y-41535368D01*
X49849522Y-41475789D01*
X49851677Y-41474435D01*
X49859523Y-41469506D01*
X49925494Y-41450500D01*
X49933480Y-41450500D01*
X50000519Y-41470185D01*
X50021161Y-41486819D01*
X50114811Y-41580469D01*
X50114813Y-41580470D01*
X50114815Y-41580472D01*
X50260394Y-41668478D01*
X50422804Y-41719086D01*
X50493384Y-41725500D01*
X50493387Y-41725500D01*
X50686614Y-41725500D01*
X50753653Y-41745185D01*
X50799408Y-41797989D01*
X50809352Y-41867147D01*
X50791608Y-41915472D01*
X50694211Y-42070476D01*
X50634631Y-42240745D01*
X50634630Y-42240750D01*
X50614435Y-42419996D01*
X50614435Y-42420003D01*
X50635411Y-42606175D01*
X50633949Y-42606339D01*
X50630171Y-42668132D01*
X50588879Y-42724495D01*
X50523671Y-42749586D01*
X50513548Y-42750000D01*
X48910000Y-42750000D01*
X48910000Y-43575500D01*
X48890315Y-43642539D01*
X48837511Y-43688294D01*
X48786000Y-43699500D01*
X48124499Y-43699500D01*
X48057460Y-43679815D01*
X48011705Y-43627011D01*
X48000499Y-43575500D01*
X48000499Y-43327129D01*
X48000498Y-43327123D01*
X48000497Y-43327116D01*
X47994091Y-43267517D01*
X47965726Y-43191467D01*
X47943797Y-43132671D01*
X47943793Y-43132664D01*
X47857547Y-43017455D01*
X47750188Y-42937085D01*
X47708318Y-42881151D01*
X47700500Y-42837819D01*
X47700500Y-42175493D01*
X47719508Y-42109519D01*
X47725787Y-42099525D01*
X47725786Y-42099525D01*
X47725789Y-42099522D01*
X47785368Y-41929255D01*
X47800158Y-41797989D01*
X47805565Y-41750003D01*
X47805565Y-41749996D01*
X47785369Y-41570750D01*
X47785368Y-41570745D01*
X47780056Y-41555565D01*
X47725789Y-41400478D01*
X47718682Y-41389168D01*
X47671638Y-41314298D01*
X47629816Y-41247738D01*
X47578337Y-41196259D01*
X47544852Y-41134936D01*
X47549836Y-41065244D01*
X47578337Y-41020897D01*
X47849232Y-40750003D01*
X48682417Y-39916819D01*
X48743740Y-39883334D01*
X48770098Y-39880500D01*
X48948779Y-39880500D01*
X49015818Y-39900185D01*
G37*
%TD.AperFunction*%
%TA.AperFunction,NonConductor*%
G36*
X35181984Y-25720185D02*
G01*
X35227739Y-25772989D01*
X35237683Y-25842147D01*
X35208658Y-25905703D01*
X35157864Y-25940836D01*
X35025450Y-25989685D01*
X34765390Y-26109575D01*
X34561558Y-26203543D01*
X34390409Y-26299391D01*
X34115878Y-26453135D01*
X33691151Y-26736929D01*
X33691147Y-26736931D01*
X33290012Y-27053160D01*
X33289999Y-27053171D01*
X32914906Y-27399906D01*
X32568171Y-27774999D01*
X32568160Y-27775012D01*
X32251931Y-28176147D01*
X32251929Y-28176151D01*
X31968135Y-28600878D01*
X31870091Y-28775949D01*
X31718543Y-29046558D01*
X31675860Y-29139144D01*
X31504685Y-29510450D01*
X31327888Y-29989679D01*
X31327887Y-29989685D01*
X31189234Y-30481306D01*
X31189229Y-30481329D01*
X31089581Y-30982297D01*
X31089575Y-30982333D01*
X31074804Y-31107132D01*
X31047376Y-31171393D01*
X30989560Y-31210624D01*
X30936455Y-31212922D01*
X30936175Y-31215411D01*
X30750004Y-31194435D01*
X30749996Y-31194435D01*
X30570750Y-31214630D01*
X30570745Y-31214631D01*
X30400476Y-31274211D01*
X30247737Y-31370184D01*
X30120184Y-31497737D01*
X30024211Y-31650476D01*
X29964631Y-31820745D01*
X29964630Y-31820750D01*
X29944435Y-31999996D01*
X29944435Y-32000003D01*
X29964630Y-32179249D01*
X29964631Y-32179254D01*
X30024211Y-32349523D01*
X30120184Y-32502262D01*
X30247738Y-32629816D01*
X30333712Y-32683837D01*
X30391514Y-32720157D01*
X30400478Y-32725789D01*
X30443200Y-32740738D01*
X30570745Y-32785368D01*
X30570750Y-32785369D01*
X30749996Y-32805565D01*
X30750000Y-32805565D01*
X30750004Y-32805565D01*
X30936176Y-32784589D01*
X30936483Y-32787320D01*
X30993764Y-32790808D01*
X31050138Y-32832084D01*
X31074804Y-32892867D01*
X31089575Y-33017666D01*
X31089576Y-33017676D01*
X31089578Y-33017687D01*
X31089581Y-33017702D01*
X31189229Y-33518670D01*
X31189234Y-33518693D01*
X31327887Y-34010314D01*
X31327888Y-34010320D01*
X31504685Y-34489549D01*
X31504687Y-34489553D01*
X31718543Y-34953442D01*
X31968136Y-35399123D01*
X32251927Y-35823846D01*
X32251929Y-35823848D01*
X32251931Y-35823852D01*
X32568160Y-36224987D01*
X32568171Y-36225000D01*
X32591281Y-36250000D01*
X32914906Y-36600094D01*
X33142380Y-36810369D01*
X33289999Y-36946828D01*
X33290012Y-36946839D01*
X33691147Y-37263068D01*
X33691148Y-37263068D01*
X33691154Y-37263073D01*
X34115877Y-37546864D01*
X34561558Y-37796457D01*
X35025447Y-38010313D01*
X35148108Y-38055565D01*
X35504679Y-38187111D01*
X35504680Y-38187111D01*
X35504685Y-38187113D01*
X35996317Y-38325768D01*
X36497313Y-38425422D01*
X36775677Y-38458368D01*
X37004572Y-38485461D01*
X37004577Y-38485461D01*
X37004583Y-38485462D01*
X37174722Y-38492146D01*
X37514990Y-38505516D01*
X37515000Y-38505516D01*
X37515010Y-38505516D01*
X37834010Y-38492982D01*
X38025417Y-38485462D01*
X38025423Y-38485461D01*
X38025427Y-38485461D01*
X38164599Y-38468988D01*
X38532687Y-38425422D01*
X39033683Y-38325768D01*
X39525315Y-38187113D01*
X40004553Y-38010313D01*
X40468442Y-37796457D01*
X40914123Y-37546864D01*
X41338846Y-37263073D01*
X41739995Y-36946833D01*
X42115094Y-36600094D01*
X42461833Y-36224995D01*
X42778073Y-35823846D01*
X43061864Y-35399123D01*
X43311457Y-34953442D01*
X43525313Y-34489553D01*
X43702113Y-34010315D01*
X43840768Y-33518683D01*
X43940422Y-33017687D01*
X43954779Y-32896381D01*
X43982205Y-32832126D01*
X44040020Y-32792894D01*
X44091801Y-32787741D01*
X44249996Y-32805565D01*
X44250000Y-32805565D01*
X44250004Y-32805565D01*
X44429249Y-32785369D01*
X44429252Y-32785368D01*
X44429255Y-32785368D01*
X44599522Y-32725789D01*
X44752262Y-32629816D01*
X44879816Y-32502262D01*
X44975789Y-32349522D01*
X45035368Y-32179255D01*
X45039331Y-32144086D01*
X45055565Y-32000003D01*
X45055565Y-31999996D01*
X45035369Y-31820750D01*
X45035368Y-31820745D01*
X45000152Y-31720104D01*
X44975789Y-31650478D01*
X44879816Y-31497738D01*
X44752262Y-31370184D01*
X44599523Y-31274211D01*
X44429254Y-31214631D01*
X44429249Y-31214630D01*
X44250004Y-31194435D01*
X44249996Y-31194435D01*
X44091802Y-31212258D01*
X44022980Y-31200203D01*
X43971601Y-31152854D01*
X43954779Y-31103613D01*
X43940424Y-30982333D01*
X43940422Y-30982313D01*
X43840768Y-30481317D01*
X43702113Y-29989685D01*
X43686072Y-29946205D01*
X43525314Y-29510450D01*
X43525313Y-29510447D01*
X43311457Y-29046558D01*
X43061864Y-28600877D01*
X42778073Y-28176154D01*
X42778068Y-28176148D01*
X42778068Y-28176147D01*
X42461839Y-27775012D01*
X42461828Y-27774999D01*
X42290035Y-27589156D01*
X42115094Y-27399906D01*
X41752290Y-27064532D01*
X41740000Y-27053171D01*
X41739987Y-27053160D01*
X41338852Y-26736931D01*
X41338849Y-26736929D01*
X41338846Y-26736927D01*
X40914123Y-26453136D01*
X40468442Y-26203543D01*
X40004553Y-25989687D01*
X40004554Y-25989687D01*
X40004549Y-25989685D01*
X39872136Y-25940836D01*
X39816054Y-25899164D01*
X39791403Y-25833787D01*
X39806011Y-25765462D01*
X39855240Y-25715881D01*
X39915055Y-25700500D01*
X41158481Y-25700500D01*
X41225520Y-25720185D01*
X41246162Y-25736819D01*
X47328181Y-31818838D01*
X47361666Y-31880161D01*
X47364500Y-31906519D01*
X47364500Y-34587870D01*
X47364501Y-34587876D01*
X47370908Y-34647483D01*
X47421202Y-34782328D01*
X47421206Y-34782335D01*
X47507452Y-34897544D01*
X47507455Y-34897547D01*
X47622664Y-34983793D01*
X47622671Y-34983797D01*
X47718833Y-35019663D01*
X47774767Y-35061534D01*
X47799184Y-35126998D01*
X47799500Y-35135845D01*
X47799500Y-36181006D01*
X47799500Y-36318994D01*
X47799500Y-36318996D01*
X47799499Y-36318996D01*
X47826418Y-36454322D01*
X47826421Y-36454332D01*
X47879222Y-36581807D01*
X47955887Y-36696545D01*
X47955888Y-36696546D01*
X48708630Y-37449287D01*
X48737990Y-37496013D01*
X48774209Y-37599519D01*
X48774211Y-37599522D01*
X48870184Y-37752262D01*
X48997738Y-37879816D01*
X49150478Y-37975789D01*
X49320745Y-38035368D01*
X49320750Y-38035369D01*
X49499996Y-38055565D01*
X49500000Y-38055565D01*
X49500004Y-38055565D01*
X49679249Y-38035369D01*
X49679252Y-38035368D01*
X49679255Y-38035368D01*
X49849522Y-37975789D01*
X50002262Y-37879816D01*
X50129816Y-37752262D01*
X50225789Y-37599522D01*
X50285368Y-37429255D01*
X50301895Y-37282572D01*
X50305565Y-37250003D01*
X50305565Y-37249996D01*
X50285369Y-37070750D01*
X50285368Y-37070745D01*
X50262188Y-37004500D01*
X50225789Y-36900478D01*
X50129816Y-36747738D01*
X50002262Y-36620184D01*
X49862824Y-36532569D01*
X49849519Y-36524209D01*
X49746013Y-36487990D01*
X49699287Y-36458630D01*
X49236819Y-35996162D01*
X49203334Y-35934839D01*
X49200500Y-35908481D01*
X49200500Y-35135845D01*
X49220185Y-35068806D01*
X49272989Y-35023051D01*
X49281167Y-35019663D01*
X49345452Y-34995686D01*
X49377331Y-34983796D01*
X49492546Y-34897546D01*
X49578796Y-34782331D01*
X49629091Y-34647483D01*
X49635500Y-34587873D01*
X49635499Y-32074499D01*
X49655184Y-32007461D01*
X49707987Y-31961706D01*
X49759499Y-31950500D01*
X49931006Y-31950500D01*
X49931007Y-31950500D01*
X52183480Y-31950500D01*
X52250519Y-31970185D01*
X52271161Y-31986819D01*
X52289811Y-32005469D01*
X52289813Y-32005470D01*
X52289815Y-32005472D01*
X52435394Y-32093478D01*
X52597804Y-32144086D01*
X52668384Y-32150500D01*
X52668387Y-32150500D01*
X53331613Y-32150500D01*
X53331616Y-32150500D01*
X53402196Y-32144086D01*
X53564606Y-32093478D01*
X53662387Y-32034366D01*
X53729940Y-32016531D01*
X53791633Y-32034946D01*
X53937704Y-32125044D01*
X53937707Y-32125045D01*
X53937713Y-32125049D01*
X54097315Y-32177936D01*
X54195826Y-32188000D01*
X54195831Y-32188000D01*
X54725500Y-32188000D01*
X54792539Y-32207685D01*
X54838294Y-32260489D01*
X54849500Y-32312000D01*
X54849500Y-33107776D01*
X54829815Y-33174815D01*
X54777011Y-33220570D01*
X54735233Y-33231393D01*
X54722441Y-33232400D01*
X54722426Y-33232402D01*
X54564606Y-33278254D01*
X54564603Y-33278255D01*
X54423137Y-33361917D01*
X54423129Y-33361923D01*
X54306923Y-33478129D01*
X54306917Y-33478137D01*
X54223255Y-33619603D01*
X54223254Y-33619606D01*
X54177402Y-33777426D01*
X54177401Y-33777432D01*
X54174500Y-33814298D01*
X54174500Y-34245701D01*
X54177401Y-34282563D01*
X54177403Y-34282572D01*
X54202920Y-34370407D01*
X54202920Y-34439593D01*
X54177403Y-34527427D01*
X54177401Y-34527436D01*
X54174500Y-34564298D01*
X54174500Y-34995701D01*
X54177401Y-35032563D01*
X54177401Y-35032566D01*
X54177402Y-35032569D01*
X54178218Y-35035379D01*
X54202920Y-35120407D01*
X54202920Y-35189593D01*
X54177403Y-35277427D01*
X54177401Y-35277436D01*
X54174500Y-35314298D01*
X54174500Y-35555500D01*
X54154815Y-35622539D01*
X54102011Y-35668294D01*
X54050500Y-35679500D01*
X52634741Y-35679500D01*
X52567702Y-35659815D01*
X52538888Y-35634165D01*
X52460883Y-35539116D01*
X52308539Y-35414090D01*
X52308532Y-35414086D01*
X52134733Y-35321188D01*
X52134727Y-35321186D01*
X52008997Y-35283046D01*
X51946129Y-35263975D01*
X51750000Y-35244659D01*
X51553870Y-35263975D01*
X51365266Y-35321188D01*
X51191467Y-35414086D01*
X51191460Y-35414090D01*
X51039116Y-35539116D01*
X50914090Y-35691460D01*
X50914086Y-35691467D01*
X50821188Y-35865266D01*
X50763975Y-36053870D01*
X50744659Y-36250000D01*
X50763975Y-36446129D01*
X50763976Y-36446132D01*
X50816774Y-36620184D01*
X50821188Y-36634733D01*
X50914086Y-36808532D01*
X50914090Y-36808539D01*
X51039116Y-36960883D01*
X51191460Y-37085909D01*
X51191467Y-37085913D01*
X51365266Y-37178811D01*
X51365269Y-37178811D01*
X51365273Y-37178814D01*
X51553868Y-37236024D01*
X51750000Y-37255341D01*
X51946132Y-37236024D01*
X52134727Y-37178814D01*
X52308538Y-37085910D01*
X52460883Y-36960883D01*
X52489647Y-36925835D01*
X52547393Y-36886501D01*
X52585500Y-36880500D01*
X54050500Y-36880500D01*
X54117539Y-36900185D01*
X54163294Y-36952989D01*
X54174500Y-37004500D01*
X54174500Y-37245701D01*
X54177401Y-37282563D01*
X54177401Y-37282566D01*
X54177402Y-37282569D01*
X54177403Y-37282572D01*
X54202920Y-37370407D01*
X54202920Y-37439593D01*
X54177403Y-37527427D01*
X54177401Y-37527436D01*
X54174500Y-37564298D01*
X54174500Y-37995701D01*
X54177401Y-38032563D01*
X54177401Y-38032566D01*
X54177402Y-38032569D01*
X54180459Y-38043091D01*
X54202920Y-38120407D01*
X54202920Y-38189593D01*
X54177403Y-38277427D01*
X54177401Y-38277436D01*
X54174500Y-38314298D01*
X54174500Y-38555500D01*
X54154815Y-38622539D01*
X54102011Y-38668294D01*
X54050500Y-38679500D01*
X48556670Y-38679500D01*
X48556654Y-38679499D01*
X48549058Y-38679499D01*
X48390943Y-38679499D01*
X48314579Y-38699961D01*
X48238214Y-38720423D01*
X48238209Y-38720426D01*
X48101290Y-38799475D01*
X48101282Y-38799481D01*
X44769481Y-42131282D01*
X44769480Y-42131284D01*
X44730915Y-42198081D01*
X44690423Y-42268215D01*
X44649499Y-42420943D01*
X44649499Y-42420945D01*
X44649499Y-42589046D01*
X44649500Y-42589059D01*
X44649500Y-45699903D01*
X44629815Y-45766942D01*
X44613181Y-45787584D01*
X43537584Y-46863181D01*
X43476261Y-46896666D01*
X43449903Y-46899500D01*
X42018465Y-46899500D01*
X41951426Y-46879815D01*
X41919198Y-46849811D01*
X41902130Y-46827011D01*
X41857546Y-46767454D01*
X41834229Y-46749999D01*
X41742335Y-46681206D01*
X41742328Y-46681202D01*
X41607482Y-46630908D01*
X41607483Y-46630908D01*
X41547883Y-46624501D01*
X41547881Y-46624500D01*
X41547873Y-46624500D01*
X41547864Y-46624500D01*
X40452129Y-46624500D01*
X40452123Y-46624501D01*
X40392516Y-46630908D01*
X40257671Y-46681202D01*
X40257664Y-46681206D01*
X40142455Y-46767452D01*
X40142452Y-46767455D01*
X40056206Y-46882664D01*
X40056202Y-46882671D01*
X40005908Y-47017517D01*
X39999501Y-47077116D01*
X39999501Y-47077123D01*
X39999500Y-47077135D01*
X39999500Y-47922870D01*
X39999501Y-47922876D01*
X40005908Y-47982483D01*
X40056202Y-48117328D01*
X40056206Y-48117335D01*
X40142452Y-48232544D01*
X40142455Y-48232547D01*
X40257664Y-48318793D01*
X40257671Y-48318797D01*
X40392517Y-48369091D01*
X40392516Y-48369091D01*
X40399444Y-48369835D01*
X40452127Y-48375500D01*
X41547872Y-48375499D01*
X41607483Y-48369091D01*
X41742331Y-48318796D01*
X41857546Y-48232546D01*
X41919199Y-48150188D01*
X41975132Y-48108318D01*
X42018465Y-48100500D01*
X43663331Y-48100500D01*
X43663347Y-48100501D01*
X43670943Y-48100501D01*
X43836653Y-48100501D01*
X43836669Y-48100500D01*
X45981535Y-48100500D01*
X46048574Y-48120185D01*
X46080800Y-48150187D01*
X46142454Y-48232546D01*
X46188643Y-48267123D01*
X46257664Y-48318793D01*
X46257671Y-48318797D01*
X46392517Y-48369091D01*
X46392516Y-48369091D01*
X46399444Y-48369835D01*
X46452127Y-48375500D01*
X47547872Y-48375499D01*
X47607483Y-48369091D01*
X47742331Y-48318796D01*
X47857546Y-48232546D01*
X47943796Y-48117331D01*
X47994091Y-47982483D01*
X48000500Y-47922873D01*
X48000499Y-47077128D01*
X47994091Y-47017517D01*
X47982113Y-46985403D01*
X47943797Y-46882671D01*
X47943793Y-46882664D01*
X47857547Y-46767455D01*
X47857544Y-46767452D01*
X47742335Y-46681206D01*
X47742328Y-46681202D01*
X47607482Y-46630908D01*
X47607483Y-46630908D01*
X47547883Y-46624501D01*
X47547881Y-46624500D01*
X47547873Y-46624500D01*
X47547864Y-46624500D01*
X46452129Y-46624500D01*
X46452123Y-46624501D01*
X46392516Y-46630908D01*
X46257671Y-46681202D01*
X46257664Y-46681206D01*
X46142456Y-46767452D01*
X46142455Y-46767453D01*
X46142454Y-46767454D01*
X46097870Y-46827011D01*
X46080802Y-46849811D01*
X46024868Y-46891682D01*
X45981535Y-46899500D01*
X45499096Y-46899500D01*
X45432057Y-46879815D01*
X45386302Y-46827011D01*
X45376358Y-46757853D01*
X45405383Y-46694297D01*
X45411415Y-46687819D01*
X45474734Y-46624500D01*
X45608506Y-46490727D01*
X45608511Y-46490724D01*
X45618714Y-46480520D01*
X45618716Y-46480520D01*
X45730520Y-46368716D01*
X45809577Y-46231784D01*
X45841615Y-46112218D01*
X45850500Y-46079058D01*
X45850500Y-45920943D01*
X45850500Y-44465102D01*
X45870185Y-44398063D01*
X45922989Y-44352308D01*
X45992147Y-44342364D01*
X46055703Y-44371389D01*
X46073762Y-44390786D01*
X46142454Y-44482546D01*
X46188643Y-44517123D01*
X46257664Y-44568793D01*
X46257671Y-44568797D01*
X46302618Y-44585561D01*
X46392517Y-44619091D01*
X46452127Y-44625500D01*
X46833480Y-44625499D01*
X46900519Y-44645183D01*
X46921161Y-44661818D01*
X47203453Y-44944111D01*
X47203454Y-44944112D01*
X47318192Y-45020777D01*
X47428683Y-45066543D01*
X47445672Y-45073580D01*
X47445676Y-45073580D01*
X47445677Y-45073581D01*
X47581003Y-45100500D01*
X47581006Y-45100500D01*
X47581007Y-45100500D01*
X48786000Y-45100500D01*
X48853039Y-45120185D01*
X48898794Y-45172989D01*
X48910000Y-45224500D01*
X48910000Y-49375500D01*
X48890315Y-49442539D01*
X48837511Y-49488294D01*
X48786000Y-49499500D01*
X25374500Y-49499500D01*
X25307461Y-49479815D01*
X25261706Y-49427011D01*
X25250500Y-49375500D01*
X25250500Y-43795091D01*
X25263807Y-43749771D01*
X25252672Y-43728013D01*
X25250500Y-43704908D01*
X25250500Y-34886781D01*
X25270185Y-34819742D01*
X25322989Y-34773987D01*
X25392147Y-34764043D01*
X25455703Y-34793068D01*
X25473762Y-34812464D01*
X25537454Y-34897546D01*
X25583643Y-34932123D01*
X25652664Y-34983793D01*
X25652673Y-34983798D01*
X25718832Y-35008473D01*
X25774766Y-35050343D01*
X25799184Y-35115807D01*
X25799500Y-35124655D01*
X25799500Y-42982096D01*
X25779815Y-43049135D01*
X25771353Y-43060761D01*
X25664090Y-43191460D01*
X25664086Y-43191467D01*
X25571188Y-43365266D01*
X25513975Y-43553870D01*
X25497903Y-43717062D01*
X25485508Y-43747756D01*
X25493477Y-43760156D01*
X25497903Y-43782937D01*
X25513975Y-43946129D01*
X25571188Y-44134733D01*
X25664086Y-44308532D01*
X25664090Y-44308539D01*
X25715671Y-44371389D01*
X25771353Y-44439238D01*
X25798666Y-44503546D01*
X25799500Y-44517902D01*
X25799500Y-44551006D01*
X25799500Y-44688994D01*
X25799500Y-44688996D01*
X25799499Y-44688996D01*
X25826418Y-44824322D01*
X25826421Y-44824332D01*
X25879222Y-44951807D01*
X25955887Y-45066545D01*
X25955888Y-45066546D01*
X27243181Y-46353838D01*
X27276666Y-46415161D01*
X27279500Y-46441519D01*
X27279500Y-47647870D01*
X27279501Y-47647876D01*
X27285908Y-47707483D01*
X27336202Y-47842328D01*
X27336206Y-47842335D01*
X27422452Y-47957544D01*
X27422455Y-47957547D01*
X27537664Y-48043793D01*
X27537671Y-48043797D01*
X27672517Y-48094091D01*
X27672516Y-48094091D01*
X27679444Y-48094835D01*
X27732127Y-48100500D01*
X29527872Y-48100499D01*
X29587483Y-48094091D01*
X29722331Y-48043796D01*
X29837546Y-47957546D01*
X29923796Y-47842331D01*
X29972810Y-47710916D01*
X30014681Y-47654984D01*
X30080145Y-47630566D01*
X30148418Y-47645417D01*
X30176673Y-47666569D01*
X30298599Y-47788495D01*
X30395384Y-47856265D01*
X30492165Y-47924032D01*
X30492167Y-47924033D01*
X30492170Y-47924035D01*
X30706337Y-48023903D01*
X30934592Y-48085063D01*
X31111034Y-48100500D01*
X31169999Y-48105659D01*
X31170000Y-48105659D01*
X31170001Y-48105659D01*
X31209234Y-48102226D01*
X31405408Y-48085063D01*
X31633663Y-48023903D01*
X31847830Y-47924035D01*
X32041401Y-47788495D01*
X32208495Y-47621401D01*
X32338425Y-47435842D01*
X32393002Y-47392217D01*
X32462500Y-47385023D01*
X32524855Y-47416546D01*
X32541575Y-47435842D01*
X32671500Y-47621395D01*
X32671505Y-47621401D01*
X32838599Y-47788495D01*
X32935384Y-47856265D01*
X33032165Y-47924032D01*
X33032167Y-47924033D01*
X33032170Y-47924035D01*
X33246337Y-48023903D01*
X33474592Y-48085063D01*
X33651034Y-48100500D01*
X33709999Y-48105659D01*
X33710000Y-48105659D01*
X33710001Y-48105659D01*
X33749234Y-48102226D01*
X33945408Y-48085063D01*
X34173663Y-48023903D01*
X34387830Y-47924035D01*
X34581401Y-47788495D01*
X34748495Y-47621401D01*
X34878425Y-47435842D01*
X34933002Y-47392217D01*
X35002500Y-47385023D01*
X35064855Y-47416546D01*
X35081575Y-47435842D01*
X35211500Y-47621395D01*
X35211505Y-47621401D01*
X35378599Y-47788495D01*
X35475384Y-47856265D01*
X35572165Y-47924032D01*
X35572167Y-47924033D01*
X35572170Y-47924035D01*
X35786337Y-48023903D01*
X36014592Y-48085063D01*
X36191034Y-48100500D01*
X36249999Y-48105659D01*
X36250000Y-48105659D01*
X36250001Y-48105659D01*
X36289234Y-48102226D01*
X36485408Y-48085063D01*
X36713663Y-48023903D01*
X36927830Y-47924035D01*
X37121401Y-47788495D01*
X37288495Y-47621401D01*
X37424035Y-47427830D01*
X37523903Y-47213663D01*
X37585063Y-46985408D01*
X37605659Y-46750000D01*
X37585063Y-46514592D01*
X37523903Y-46286337D01*
X37424035Y-46072171D01*
X37418425Y-46064158D01*
X37288494Y-45878597D01*
X37121404Y-45711508D01*
X37121402Y-45711506D01*
X37121401Y-45711505D01*
X37121396Y-45711501D01*
X37121393Y-45711499D01*
X37003376Y-45628861D01*
X36959751Y-45574284D01*
X36950500Y-45527287D01*
X36950500Y-44517902D01*
X36970185Y-44450863D01*
X36978642Y-44439242D01*
X37085910Y-44308538D01*
X37178814Y-44134727D01*
X37236024Y-43946132D01*
X37255341Y-43750000D01*
X37236024Y-43553868D01*
X37178814Y-43365273D01*
X37178811Y-43365269D01*
X37178811Y-43365266D01*
X37158429Y-43327135D01*
X39999500Y-43327135D01*
X39999500Y-44172870D01*
X39999501Y-44172876D01*
X40005908Y-44232483D01*
X40056202Y-44367328D01*
X40056206Y-44367335D01*
X40142452Y-44482544D01*
X40142455Y-44482547D01*
X40257664Y-44568793D01*
X40257671Y-44568797D01*
X40392517Y-44619091D01*
X40392516Y-44619091D01*
X40399444Y-44619835D01*
X40452127Y-44625500D01*
X41547872Y-44625499D01*
X41607483Y-44619091D01*
X41742331Y-44568796D01*
X41857546Y-44482546D01*
X41943796Y-44367331D01*
X41994091Y-44232483D01*
X42000500Y-44172873D01*
X42000499Y-43327128D01*
X41994091Y-43267517D01*
X41965726Y-43191467D01*
X41943797Y-43132671D01*
X41943793Y-43132664D01*
X41857547Y-43017455D01*
X41750188Y-42937085D01*
X41708318Y-42881151D01*
X41700500Y-42837819D01*
X41700500Y-42175493D01*
X41719508Y-42109519D01*
X41725787Y-42099525D01*
X41725786Y-42099525D01*
X41725789Y-42099522D01*
X41785368Y-41929255D01*
X41800158Y-41797989D01*
X41805565Y-41750003D01*
X41805565Y-41749996D01*
X41785369Y-41570750D01*
X41785368Y-41570745D01*
X41780056Y-41555565D01*
X41725789Y-41400478D01*
X41718682Y-41389168D01*
X41671638Y-41314298D01*
X41629816Y-41247738D01*
X41502262Y-41120184D01*
X41485289Y-41109519D01*
X41349523Y-41024211D01*
X41179254Y-40964631D01*
X41179249Y-40964630D01*
X41000004Y-40944435D01*
X40999996Y-40944435D01*
X40820750Y-40964630D01*
X40820745Y-40964631D01*
X40650476Y-41024211D01*
X40497737Y-41120184D01*
X40370184Y-41247737D01*
X40274211Y-41400476D01*
X40214631Y-41570745D01*
X40214630Y-41570750D01*
X40194435Y-41749996D01*
X40194435Y-41750003D01*
X40214630Y-41929249D01*
X40214631Y-41929254D01*
X40274212Y-42099525D01*
X40280492Y-42109519D01*
X40299500Y-42175493D01*
X40299500Y-42837819D01*
X40279815Y-42904858D01*
X40249812Y-42937085D01*
X40142452Y-43017455D01*
X40056206Y-43132664D01*
X40056202Y-43132671D01*
X40005908Y-43267517D01*
X39999501Y-43327116D01*
X39999501Y-43327123D01*
X39999500Y-43327135D01*
X37158429Y-43327135D01*
X37085913Y-43191467D01*
X37085909Y-43191460D01*
X36978647Y-43060761D01*
X36951334Y-42996451D01*
X36950500Y-42982096D01*
X36950500Y-41175493D01*
X36969508Y-41109519D01*
X36975787Y-41099525D01*
X36975788Y-41099523D01*
X36975789Y-41099522D01*
X37035368Y-40929255D01*
X37040942Y-40879785D01*
X37055565Y-40750003D01*
X37055565Y-40749996D01*
X37035369Y-40570750D01*
X37035368Y-40570745D01*
X37033112Y-40564298D01*
X36975789Y-40400478D01*
X36879816Y-40247738D01*
X36752262Y-40120184D01*
X36670248Y-40068651D01*
X36599523Y-40024211D01*
X36429254Y-39964631D01*
X36429249Y-39964630D01*
X36250004Y-39944435D01*
X36249996Y-39944435D01*
X36070750Y-39964630D01*
X36070745Y-39964631D01*
X35900476Y-40024211D01*
X35747737Y-40120184D01*
X35620184Y-40247737D01*
X35524211Y-40400476D01*
X35464631Y-40570745D01*
X35464630Y-40570750D01*
X35444435Y-40749996D01*
X35444435Y-40750003D01*
X35464630Y-40929249D01*
X35464631Y-40929254D01*
X35524212Y-41099525D01*
X35530492Y-41109519D01*
X35549500Y-41175493D01*
X35549500Y-42982096D01*
X35529815Y-43049135D01*
X35521353Y-43060761D01*
X35414090Y-43191460D01*
X35414086Y-43191467D01*
X35321188Y-43365266D01*
X35263975Y-43553870D01*
X35244659Y-43750000D01*
X35263975Y-43946129D01*
X35321188Y-44134733D01*
X35414086Y-44308532D01*
X35414090Y-44308539D01*
X35465671Y-44371389D01*
X35521353Y-44439238D01*
X35548666Y-44503546D01*
X35549500Y-44517902D01*
X35549500Y-45527288D01*
X35529815Y-45594327D01*
X35496624Y-45628863D01*
X35378594Y-45711508D01*
X35211505Y-45878597D01*
X35081575Y-46064158D01*
X35026998Y-46107783D01*
X34957500Y-46114977D01*
X34895145Y-46083454D01*
X34878425Y-46064158D01*
X34748494Y-45878597D01*
X34581402Y-45711506D01*
X34581395Y-45711501D01*
X34564831Y-45699903D01*
X34504518Y-45657671D01*
X34387834Y-45575967D01*
X34387830Y-45575965D01*
X34384225Y-45574284D01*
X34173663Y-45476097D01*
X34173659Y-45476096D01*
X34173655Y-45476094D01*
X33945413Y-45414938D01*
X33945403Y-45414936D01*
X33710001Y-45394341D01*
X33709999Y-45394341D01*
X33474596Y-45414936D01*
X33474586Y-45414938D01*
X33246344Y-45476094D01*
X33246335Y-45476098D01*
X33032171Y-45575964D01*
X33032169Y-45575965D01*
X32838597Y-45711505D01*
X32671505Y-45878597D01*
X32541575Y-46064158D01*
X32486998Y-46107783D01*
X32417500Y-46114977D01*
X32355145Y-46083454D01*
X32338425Y-46064158D01*
X32208494Y-45878597D01*
X32041402Y-45711506D01*
X32041395Y-45711501D01*
X32024831Y-45699903D01*
X31964518Y-45657671D01*
X31847834Y-45575967D01*
X31847830Y-45575965D01*
X31844225Y-45574284D01*
X31633663Y-45476097D01*
X31633659Y-45476096D01*
X31633655Y-45476094D01*
X31405413Y-45414938D01*
X31405403Y-45414936D01*
X31170001Y-45394341D01*
X31169999Y-45394341D01*
X30934596Y-45414936D01*
X30934586Y-45414938D01*
X30706344Y-45476094D01*
X30706335Y-45476098D01*
X30492171Y-45575964D01*
X30492169Y-45575965D01*
X30298600Y-45711503D01*
X30176673Y-45833430D01*
X30115350Y-45866914D01*
X30045658Y-45861930D01*
X29989725Y-45820058D01*
X29972810Y-45789081D01*
X29923797Y-45657671D01*
X29923793Y-45657664D01*
X29837547Y-45542455D01*
X29837544Y-45542452D01*
X29722335Y-45456206D01*
X29722328Y-45456202D01*
X29587482Y-45405908D01*
X29587483Y-45405908D01*
X29527883Y-45399501D01*
X29527881Y-45399500D01*
X29527873Y-45399500D01*
X29527865Y-45399500D01*
X28321519Y-45399500D01*
X28254480Y-45379815D01*
X28233838Y-45363181D01*
X27344739Y-44474082D01*
X27311254Y-44412759D01*
X27316238Y-44343067D01*
X27333006Y-44313930D01*
X27332523Y-44313607D01*
X27335904Y-44308544D01*
X27335910Y-44308538D01*
X27428814Y-44134727D01*
X27486024Y-43946132D01*
X27505341Y-43750000D01*
X27486024Y-43553868D01*
X27428814Y-43365273D01*
X27428811Y-43365269D01*
X27428811Y-43365266D01*
X27335913Y-43191467D01*
X27335909Y-43191460D01*
X27228647Y-43060761D01*
X27201334Y-42996451D01*
X27200500Y-42982096D01*
X27200500Y-35147034D01*
X27220185Y-35079995D01*
X27272989Y-35034240D01*
X27281167Y-35030852D01*
X27302083Y-35023051D01*
X27407331Y-34983796D01*
X27522546Y-34897546D01*
X27608796Y-34782331D01*
X27659091Y-34647483D01*
X27665500Y-34587873D01*
X27665499Y-31876517D01*
X27685184Y-31809479D01*
X27701813Y-31788842D01*
X33753838Y-25736819D01*
X33815161Y-25703334D01*
X33841519Y-25700500D01*
X35114945Y-25700500D01*
X35181984Y-25720185D01*
G37*
%TD.AperFunction*%
M02*
