%TF.GenerationSoftware,KiCad,Pcbnew,8.0.3*%
%TF.CreationDate,2024-06-24T08:11:51-04:00*%
%TF.ProjectId,bike_cadence_meter,62696b65-5f63-4616-9465-6e63655f6d65,rev?*%
%TF.SameCoordinates,Original*%
%TF.FileFunction,Legend,Top*%
%TF.FilePolarity,Positive*%
%FSLAX46Y46*%
G04 Gerber Fmt 4.6, Leading zero omitted, Abs format (unit mm)*
G04 Created by KiCad (PCBNEW 8.0.3) date 2024-06-24 08:11:51*
%MOMM*%
%LPD*%
G01*
G04 APERTURE LIST*
%ADD10C,0.150000*%
%ADD11C,0.100000*%
%ADD12C,0.120000*%
%ADD13C,0.127000*%
G04 APERTURE END LIST*
D10*
X62273809Y-22178628D02*
X62273809Y-22654819D01*
X61940476Y-21654819D02*
X62273809Y-22178628D01*
X62273809Y-22178628D02*
X62607142Y-21654819D01*
X63464285Y-22654819D02*
X62892857Y-22654819D01*
X63178571Y-22654819D02*
X63178571Y-21654819D01*
X63178571Y-21654819D02*
X63083333Y-21797676D01*
X63083333Y-21797676D02*
X62988095Y-21892914D01*
X62988095Y-21892914D02*
X62892857Y-21940533D01*
X27666667Y-43204819D02*
X28000000Y-44204819D01*
X28000000Y-44204819D02*
X28333333Y-43204819D01*
X29238095Y-44109580D02*
X29190476Y-44157200D01*
X29190476Y-44157200D02*
X29047619Y-44204819D01*
X29047619Y-44204819D02*
X28952381Y-44204819D01*
X28952381Y-44204819D02*
X28809524Y-44157200D01*
X28809524Y-44157200D02*
X28714286Y-44061961D01*
X28714286Y-44061961D02*
X28666667Y-43966723D01*
X28666667Y-43966723D02*
X28619048Y-43776247D01*
X28619048Y-43776247D02*
X28619048Y-43633390D01*
X28619048Y-43633390D02*
X28666667Y-43442914D01*
X28666667Y-43442914D02*
X28714286Y-43347676D01*
X28714286Y-43347676D02*
X28809524Y-43252438D01*
X28809524Y-43252438D02*
X28952381Y-43204819D01*
X28952381Y-43204819D02*
X29047619Y-43204819D01*
X29047619Y-43204819D02*
X29190476Y-43252438D01*
X29190476Y-43252438D02*
X29238095Y-43300057D01*
X30238095Y-44109580D02*
X30190476Y-44157200D01*
X30190476Y-44157200D02*
X30047619Y-44204819D01*
X30047619Y-44204819D02*
X29952381Y-44204819D01*
X29952381Y-44204819D02*
X29809524Y-44157200D01*
X29809524Y-44157200D02*
X29714286Y-44061961D01*
X29714286Y-44061961D02*
X29666667Y-43966723D01*
X29666667Y-43966723D02*
X29619048Y-43776247D01*
X29619048Y-43776247D02*
X29619048Y-43633390D01*
X29619048Y-43633390D02*
X29666667Y-43442914D01*
X29666667Y-43442914D02*
X29714286Y-43347676D01*
X29714286Y-43347676D02*
X29809524Y-43252438D01*
X29809524Y-43252438D02*
X29952381Y-43204819D01*
X29952381Y-43204819D02*
X30047619Y-43204819D01*
X30047619Y-43204819D02*
X30190476Y-43252438D01*
X30190476Y-43252438D02*
X30238095Y-43300057D01*
X37988095Y-43252438D02*
X37892857Y-43204819D01*
X37892857Y-43204819D02*
X37750000Y-43204819D01*
X37750000Y-43204819D02*
X37607143Y-43252438D01*
X37607143Y-43252438D02*
X37511905Y-43347676D01*
X37511905Y-43347676D02*
X37464286Y-43442914D01*
X37464286Y-43442914D02*
X37416667Y-43633390D01*
X37416667Y-43633390D02*
X37416667Y-43776247D01*
X37416667Y-43776247D02*
X37464286Y-43966723D01*
X37464286Y-43966723D02*
X37511905Y-44061961D01*
X37511905Y-44061961D02*
X37607143Y-44157200D01*
X37607143Y-44157200D02*
X37750000Y-44204819D01*
X37750000Y-44204819D02*
X37845238Y-44204819D01*
X37845238Y-44204819D02*
X37988095Y-44157200D01*
X37988095Y-44157200D02*
X38035714Y-44109580D01*
X38035714Y-44109580D02*
X38035714Y-43776247D01*
X38035714Y-43776247D02*
X37845238Y-43776247D01*
X38464286Y-44204819D02*
X38464286Y-43204819D01*
X38464286Y-43204819D02*
X39035714Y-44204819D01*
X39035714Y-44204819D02*
X39035714Y-43204819D01*
X39511905Y-44204819D02*
X39511905Y-43204819D01*
X39511905Y-43204819D02*
X39750000Y-43204819D01*
X39750000Y-43204819D02*
X39892857Y-43252438D01*
X39892857Y-43252438D02*
X39988095Y-43347676D01*
X39988095Y-43347676D02*
X40035714Y-43442914D01*
X40035714Y-43442914D02*
X40083333Y-43633390D01*
X40083333Y-43633390D02*
X40083333Y-43776247D01*
X40083333Y-43776247D02*
X40035714Y-43966723D01*
X40035714Y-43966723D02*
X39988095Y-44061961D01*
X39988095Y-44061961D02*
X39892857Y-44157200D01*
X39892857Y-44157200D02*
X39750000Y-44204819D01*
X39750000Y-44204819D02*
X39511905Y-44204819D01*
X50535714Y-34954819D02*
X50535714Y-33954819D01*
X50535714Y-33954819D02*
X50916666Y-33954819D01*
X50916666Y-33954819D02*
X51011904Y-34002438D01*
X51011904Y-34002438D02*
X51059523Y-34050057D01*
X51059523Y-34050057D02*
X51107142Y-34145295D01*
X51107142Y-34145295D02*
X51107142Y-34288152D01*
X51107142Y-34288152D02*
X51059523Y-34383390D01*
X51059523Y-34383390D02*
X51011904Y-34431009D01*
X51011904Y-34431009D02*
X50916666Y-34478628D01*
X50916666Y-34478628D02*
X50535714Y-34478628D01*
X52059523Y-34954819D02*
X51488095Y-34954819D01*
X51773809Y-34954819D02*
X51773809Y-33954819D01*
X51773809Y-33954819D02*
X51678571Y-34097676D01*
X51678571Y-34097676D02*
X51583333Y-34192914D01*
X51583333Y-34192914D02*
X51488095Y-34240533D01*
X52392857Y-33954819D02*
X53011904Y-33954819D01*
X53011904Y-33954819D02*
X52678571Y-34335771D01*
X52678571Y-34335771D02*
X52821428Y-34335771D01*
X52821428Y-34335771D02*
X52916666Y-34383390D01*
X52916666Y-34383390D02*
X52964285Y-34431009D01*
X52964285Y-34431009D02*
X53011904Y-34526247D01*
X53011904Y-34526247D02*
X53011904Y-34764342D01*
X53011904Y-34764342D02*
X52964285Y-34859580D01*
X52964285Y-34859580D02*
X52916666Y-34907200D01*
X52916666Y-34907200D02*
X52821428Y-34954819D01*
X52821428Y-34954819D02*
X52535714Y-34954819D01*
X52535714Y-34954819D02*
X52440476Y-34907200D01*
X52440476Y-34907200D02*
X52392857Y-34859580D01*
X50833333Y-30954819D02*
X50500000Y-30478628D01*
X50261905Y-30954819D02*
X50261905Y-29954819D01*
X50261905Y-29954819D02*
X50642857Y-29954819D01*
X50642857Y-29954819D02*
X50738095Y-30002438D01*
X50738095Y-30002438D02*
X50785714Y-30050057D01*
X50785714Y-30050057D02*
X50833333Y-30145295D01*
X50833333Y-30145295D02*
X50833333Y-30288152D01*
X50833333Y-30288152D02*
X50785714Y-30383390D01*
X50785714Y-30383390D02*
X50738095Y-30431009D01*
X50738095Y-30431009D02*
X50642857Y-30478628D01*
X50642857Y-30478628D02*
X50261905Y-30478628D01*
X51738095Y-29954819D02*
X51261905Y-29954819D01*
X51261905Y-29954819D02*
X51214286Y-30431009D01*
X51214286Y-30431009D02*
X51261905Y-30383390D01*
X51261905Y-30383390D02*
X51357143Y-30335771D01*
X51357143Y-30335771D02*
X51595238Y-30335771D01*
X51595238Y-30335771D02*
X51690476Y-30383390D01*
X51690476Y-30383390D02*
X51738095Y-30431009D01*
X51738095Y-30431009D02*
X51785714Y-30526247D01*
X51785714Y-30526247D02*
X51785714Y-30764342D01*
X51785714Y-30764342D02*
X51738095Y-30859580D01*
X51738095Y-30859580D02*
X51690476Y-30907200D01*
X51690476Y-30907200D02*
X51595238Y-30954819D01*
X51595238Y-30954819D02*
X51357143Y-30954819D01*
X51357143Y-30954819D02*
X51261905Y-30907200D01*
X51261905Y-30907200D02*
X51214286Y-30859580D01*
X58583333Y-22454819D02*
X58250000Y-21978628D01*
X58011905Y-22454819D02*
X58011905Y-21454819D01*
X58011905Y-21454819D02*
X58392857Y-21454819D01*
X58392857Y-21454819D02*
X58488095Y-21502438D01*
X58488095Y-21502438D02*
X58535714Y-21550057D01*
X58535714Y-21550057D02*
X58583333Y-21645295D01*
X58583333Y-21645295D02*
X58583333Y-21788152D01*
X58583333Y-21788152D02*
X58535714Y-21883390D01*
X58535714Y-21883390D02*
X58488095Y-21931009D01*
X58488095Y-21931009D02*
X58392857Y-21978628D01*
X58392857Y-21978628D02*
X58011905Y-21978628D01*
X58964286Y-21550057D02*
X59011905Y-21502438D01*
X59011905Y-21502438D02*
X59107143Y-21454819D01*
X59107143Y-21454819D02*
X59345238Y-21454819D01*
X59345238Y-21454819D02*
X59440476Y-21502438D01*
X59440476Y-21502438D02*
X59488095Y-21550057D01*
X59488095Y-21550057D02*
X59535714Y-21645295D01*
X59535714Y-21645295D02*
X59535714Y-21740533D01*
X59535714Y-21740533D02*
X59488095Y-21883390D01*
X59488095Y-21883390D02*
X58916667Y-22454819D01*
X58916667Y-22454819D02*
X59535714Y-22454819D01*
X32416666Y-43954819D02*
X32416666Y-44669104D01*
X32416666Y-44669104D02*
X32369047Y-44811961D01*
X32369047Y-44811961D02*
X32273809Y-44907200D01*
X32273809Y-44907200D02*
X32130952Y-44954819D01*
X32130952Y-44954819D02*
X32035714Y-44954819D01*
X32845238Y-44050057D02*
X32892857Y-44002438D01*
X32892857Y-44002438D02*
X32988095Y-43954819D01*
X32988095Y-43954819D02*
X33226190Y-43954819D01*
X33226190Y-43954819D02*
X33321428Y-44002438D01*
X33321428Y-44002438D02*
X33369047Y-44050057D01*
X33369047Y-44050057D02*
X33416666Y-44145295D01*
X33416666Y-44145295D02*
X33416666Y-44240533D01*
X33416666Y-44240533D02*
X33369047Y-44383390D01*
X33369047Y-44383390D02*
X32797619Y-44954819D01*
X32797619Y-44954819D02*
X33416666Y-44954819D01*
X55583333Y-27704819D02*
X55250000Y-27228628D01*
X55011905Y-27704819D02*
X55011905Y-26704819D01*
X55011905Y-26704819D02*
X55392857Y-26704819D01*
X55392857Y-26704819D02*
X55488095Y-26752438D01*
X55488095Y-26752438D02*
X55535714Y-26800057D01*
X55535714Y-26800057D02*
X55583333Y-26895295D01*
X55583333Y-26895295D02*
X55583333Y-27038152D01*
X55583333Y-27038152D02*
X55535714Y-27133390D01*
X55535714Y-27133390D02*
X55488095Y-27181009D01*
X55488095Y-27181009D02*
X55392857Y-27228628D01*
X55392857Y-27228628D02*
X55011905Y-27228628D01*
X56440476Y-27038152D02*
X56440476Y-27704819D01*
X56202381Y-26657200D02*
X55964286Y-27371485D01*
X55964286Y-27371485D02*
X56583333Y-27371485D01*
X56783333Y-22454819D02*
X56450000Y-21978628D01*
X56211905Y-22454819D02*
X56211905Y-21454819D01*
X56211905Y-21454819D02*
X56592857Y-21454819D01*
X56592857Y-21454819D02*
X56688095Y-21502438D01*
X56688095Y-21502438D02*
X56735714Y-21550057D01*
X56735714Y-21550057D02*
X56783333Y-21645295D01*
X56783333Y-21645295D02*
X56783333Y-21788152D01*
X56783333Y-21788152D02*
X56735714Y-21883390D01*
X56735714Y-21883390D02*
X56688095Y-21931009D01*
X56688095Y-21931009D02*
X56592857Y-21978628D01*
X56592857Y-21978628D02*
X56211905Y-21978628D01*
X57735714Y-22454819D02*
X57164286Y-22454819D01*
X57450000Y-22454819D02*
X57450000Y-21454819D01*
X57450000Y-21454819D02*
X57354762Y-21597676D01*
X57354762Y-21597676D02*
X57259524Y-21692914D01*
X57259524Y-21692914D02*
X57164286Y-21740533D01*
X66945833Y-31609580D02*
X66898214Y-31657200D01*
X66898214Y-31657200D02*
X66755357Y-31704819D01*
X66755357Y-31704819D02*
X66660119Y-31704819D01*
X66660119Y-31704819D02*
X66517262Y-31657200D01*
X66517262Y-31657200D02*
X66422024Y-31561961D01*
X66422024Y-31561961D02*
X66374405Y-31466723D01*
X66374405Y-31466723D02*
X66326786Y-31276247D01*
X66326786Y-31276247D02*
X66326786Y-31133390D01*
X66326786Y-31133390D02*
X66374405Y-30942914D01*
X66374405Y-30942914D02*
X66422024Y-30847676D01*
X66422024Y-30847676D02*
X66517262Y-30752438D01*
X66517262Y-30752438D02*
X66660119Y-30704819D01*
X66660119Y-30704819D02*
X66755357Y-30704819D01*
X66755357Y-30704819D02*
X66898214Y-30752438D01*
X66898214Y-30752438D02*
X66945833Y-30800057D01*
X67326786Y-30800057D02*
X67374405Y-30752438D01*
X67374405Y-30752438D02*
X67469643Y-30704819D01*
X67469643Y-30704819D02*
X67707738Y-30704819D01*
X67707738Y-30704819D02*
X67802976Y-30752438D01*
X67802976Y-30752438D02*
X67850595Y-30800057D01*
X67850595Y-30800057D02*
X67898214Y-30895295D01*
X67898214Y-30895295D02*
X67898214Y-30990533D01*
X67898214Y-30990533D02*
X67850595Y-31133390D01*
X67850595Y-31133390D02*
X67279167Y-31704819D01*
X67279167Y-31704819D02*
X67898214Y-31704819D01*
X58083333Y-28997080D02*
X58035714Y-29044700D01*
X58035714Y-29044700D02*
X57892857Y-29092319D01*
X57892857Y-29092319D02*
X57797619Y-29092319D01*
X57797619Y-29092319D02*
X57654762Y-29044700D01*
X57654762Y-29044700D02*
X57559524Y-28949461D01*
X57559524Y-28949461D02*
X57511905Y-28854223D01*
X57511905Y-28854223D02*
X57464286Y-28663747D01*
X57464286Y-28663747D02*
X57464286Y-28520890D01*
X57464286Y-28520890D02*
X57511905Y-28330414D01*
X57511905Y-28330414D02*
X57559524Y-28235176D01*
X57559524Y-28235176D02*
X57654762Y-28139938D01*
X57654762Y-28139938D02*
X57797619Y-28092319D01*
X57797619Y-28092319D02*
X57892857Y-28092319D01*
X57892857Y-28092319D02*
X58035714Y-28139938D01*
X58035714Y-28139938D02*
X58083333Y-28187557D01*
X58940476Y-28092319D02*
X58750000Y-28092319D01*
X58750000Y-28092319D02*
X58654762Y-28139938D01*
X58654762Y-28139938D02*
X58607143Y-28187557D01*
X58607143Y-28187557D02*
X58511905Y-28330414D01*
X58511905Y-28330414D02*
X58464286Y-28520890D01*
X58464286Y-28520890D02*
X58464286Y-28901842D01*
X58464286Y-28901842D02*
X58511905Y-28997080D01*
X58511905Y-28997080D02*
X58559524Y-29044700D01*
X58559524Y-29044700D02*
X58654762Y-29092319D01*
X58654762Y-29092319D02*
X58845238Y-29092319D01*
X58845238Y-29092319D02*
X58940476Y-29044700D01*
X58940476Y-29044700D02*
X58988095Y-28997080D01*
X58988095Y-28997080D02*
X59035714Y-28901842D01*
X59035714Y-28901842D02*
X59035714Y-28663747D01*
X59035714Y-28663747D02*
X58988095Y-28568509D01*
X58988095Y-28568509D02*
X58940476Y-28520890D01*
X58940476Y-28520890D02*
X58845238Y-28473271D01*
X58845238Y-28473271D02*
X58654762Y-28473271D01*
X58654762Y-28473271D02*
X58559524Y-28520890D01*
X58559524Y-28520890D02*
X58511905Y-28568509D01*
X58511905Y-28568509D02*
X58464286Y-28663747D01*
X49347080Y-28166666D02*
X49394700Y-28214285D01*
X49394700Y-28214285D02*
X49442319Y-28357142D01*
X49442319Y-28357142D02*
X49442319Y-28452380D01*
X49442319Y-28452380D02*
X49394700Y-28595237D01*
X49394700Y-28595237D02*
X49299461Y-28690475D01*
X49299461Y-28690475D02*
X49204223Y-28738094D01*
X49204223Y-28738094D02*
X49013747Y-28785713D01*
X49013747Y-28785713D02*
X48870890Y-28785713D01*
X48870890Y-28785713D02*
X48680414Y-28738094D01*
X48680414Y-28738094D02*
X48585176Y-28690475D01*
X48585176Y-28690475D02*
X48489938Y-28595237D01*
X48489938Y-28595237D02*
X48442319Y-28452380D01*
X48442319Y-28452380D02*
X48442319Y-28357142D01*
X48442319Y-28357142D02*
X48489938Y-28214285D01*
X48489938Y-28214285D02*
X48537557Y-28166666D01*
X49442319Y-27214285D02*
X49442319Y-27785713D01*
X49442319Y-27499999D02*
X48442319Y-27499999D01*
X48442319Y-27499999D02*
X48585176Y-27595237D01*
X48585176Y-27595237D02*
X48680414Y-27690475D01*
X48680414Y-27690475D02*
X48728033Y-27785713D01*
X51408333Y-39704819D02*
X51075000Y-39228628D01*
X50836905Y-39704819D02*
X50836905Y-38704819D01*
X50836905Y-38704819D02*
X51217857Y-38704819D01*
X51217857Y-38704819D02*
X51313095Y-38752438D01*
X51313095Y-38752438D02*
X51360714Y-38800057D01*
X51360714Y-38800057D02*
X51408333Y-38895295D01*
X51408333Y-38895295D02*
X51408333Y-39038152D01*
X51408333Y-39038152D02*
X51360714Y-39133390D01*
X51360714Y-39133390D02*
X51313095Y-39181009D01*
X51313095Y-39181009D02*
X51217857Y-39228628D01*
X51217857Y-39228628D02*
X50836905Y-39228628D01*
X51741667Y-38704819D02*
X52360714Y-38704819D01*
X52360714Y-38704819D02*
X52027381Y-39085771D01*
X52027381Y-39085771D02*
X52170238Y-39085771D01*
X52170238Y-39085771D02*
X52265476Y-39133390D01*
X52265476Y-39133390D02*
X52313095Y-39181009D01*
X52313095Y-39181009D02*
X52360714Y-39276247D01*
X52360714Y-39276247D02*
X52360714Y-39514342D01*
X52360714Y-39514342D02*
X52313095Y-39609580D01*
X52313095Y-39609580D02*
X52265476Y-39657200D01*
X52265476Y-39657200D02*
X52170238Y-39704819D01*
X52170238Y-39704819D02*
X51884524Y-39704819D01*
X51884524Y-39704819D02*
X51789286Y-39657200D01*
X51789286Y-39657200D02*
X51741667Y-39609580D01*
D11*
X59988095Y-39207419D02*
X59988095Y-40016942D01*
X59988095Y-40016942D02*
X60035714Y-40112180D01*
X60035714Y-40112180D02*
X60083333Y-40159800D01*
X60083333Y-40159800D02*
X60178571Y-40207419D01*
X60178571Y-40207419D02*
X60369047Y-40207419D01*
X60369047Y-40207419D02*
X60464285Y-40159800D01*
X60464285Y-40159800D02*
X60511904Y-40112180D01*
X60511904Y-40112180D02*
X60559523Y-40016942D01*
X60559523Y-40016942D02*
X60559523Y-39207419D01*
X61559523Y-40207419D02*
X60988095Y-40207419D01*
X61273809Y-40207419D02*
X61273809Y-39207419D01*
X61273809Y-39207419D02*
X61178571Y-39350276D01*
X61178571Y-39350276D02*
X61083333Y-39445514D01*
X61083333Y-39445514D02*
X60988095Y-39493133D01*
D10*
X58988095Y-38181009D02*
X59130952Y-38228628D01*
X59130952Y-38228628D02*
X59178571Y-38276247D01*
X59178571Y-38276247D02*
X59226190Y-38371485D01*
X59226190Y-38371485D02*
X59226190Y-38514342D01*
X59226190Y-38514342D02*
X59178571Y-38609580D01*
X59178571Y-38609580D02*
X59130952Y-38657200D01*
X59130952Y-38657200D02*
X59035714Y-38704819D01*
X59035714Y-38704819D02*
X58654762Y-38704819D01*
X58654762Y-38704819D02*
X58654762Y-37704819D01*
X58654762Y-37704819D02*
X58988095Y-37704819D01*
X58988095Y-37704819D02*
X59083333Y-37752438D01*
X59083333Y-37752438D02*
X59130952Y-37800057D01*
X59130952Y-37800057D02*
X59178571Y-37895295D01*
X59178571Y-37895295D02*
X59178571Y-37990533D01*
X59178571Y-37990533D02*
X59130952Y-38085771D01*
X59130952Y-38085771D02*
X59083333Y-38133390D01*
X59083333Y-38133390D02*
X58988095Y-38181009D01*
X58988095Y-38181009D02*
X58654762Y-38181009D01*
X60130952Y-38704819D02*
X59654762Y-38704819D01*
X59654762Y-38704819D02*
X59654762Y-37704819D01*
X60892857Y-37704819D02*
X60702381Y-37704819D01*
X60702381Y-37704819D02*
X60607143Y-37752438D01*
X60607143Y-37752438D02*
X60559524Y-37800057D01*
X60559524Y-37800057D02*
X60464286Y-37942914D01*
X60464286Y-37942914D02*
X60416667Y-38133390D01*
X60416667Y-38133390D02*
X60416667Y-38514342D01*
X60416667Y-38514342D02*
X60464286Y-38609580D01*
X60464286Y-38609580D02*
X60511905Y-38657200D01*
X60511905Y-38657200D02*
X60607143Y-38704819D01*
X60607143Y-38704819D02*
X60797619Y-38704819D01*
X60797619Y-38704819D02*
X60892857Y-38657200D01*
X60892857Y-38657200D02*
X60940476Y-38609580D01*
X60940476Y-38609580D02*
X60988095Y-38514342D01*
X60988095Y-38514342D02*
X60988095Y-38276247D01*
X60988095Y-38276247D02*
X60940476Y-38181009D01*
X60940476Y-38181009D02*
X60892857Y-38133390D01*
X60892857Y-38133390D02*
X60797619Y-38085771D01*
X60797619Y-38085771D02*
X60607143Y-38085771D01*
X60607143Y-38085771D02*
X60511905Y-38133390D01*
X60511905Y-38133390D02*
X60464286Y-38181009D01*
X60464286Y-38181009D02*
X60416667Y-38276247D01*
X61892857Y-37704819D02*
X61416667Y-37704819D01*
X61416667Y-37704819D02*
X61369048Y-38181009D01*
X61369048Y-38181009D02*
X61416667Y-38133390D01*
X61416667Y-38133390D02*
X61511905Y-38085771D01*
X61511905Y-38085771D02*
X61750000Y-38085771D01*
X61750000Y-38085771D02*
X61845238Y-38133390D01*
X61845238Y-38133390D02*
X61892857Y-38181009D01*
X61892857Y-38181009D02*
X61940476Y-38276247D01*
X61940476Y-38276247D02*
X61940476Y-38514342D01*
X61940476Y-38514342D02*
X61892857Y-38609580D01*
X61892857Y-38609580D02*
X61845238Y-38657200D01*
X61845238Y-38657200D02*
X61750000Y-38704819D01*
X61750000Y-38704819D02*
X61511905Y-38704819D01*
X61511905Y-38704819D02*
X61416667Y-38657200D01*
X61416667Y-38657200D02*
X61369048Y-38609580D01*
X62892857Y-38704819D02*
X62321429Y-38704819D01*
X62607143Y-38704819D02*
X62607143Y-37704819D01*
X62607143Y-37704819D02*
X62511905Y-37847676D01*
X62511905Y-37847676D02*
X62416667Y-37942914D01*
X62416667Y-37942914D02*
X62321429Y-37990533D01*
X42666667Y-42157200D02*
X42809524Y-42204819D01*
X42809524Y-42204819D02*
X43047619Y-42204819D01*
X43047619Y-42204819D02*
X43142857Y-42157200D01*
X43142857Y-42157200D02*
X43190476Y-42109580D01*
X43190476Y-42109580D02*
X43238095Y-42014342D01*
X43238095Y-42014342D02*
X43238095Y-41919104D01*
X43238095Y-41919104D02*
X43190476Y-41823866D01*
X43190476Y-41823866D02*
X43142857Y-41776247D01*
X43142857Y-41776247D02*
X43047619Y-41728628D01*
X43047619Y-41728628D02*
X42857143Y-41681009D01*
X42857143Y-41681009D02*
X42761905Y-41633390D01*
X42761905Y-41633390D02*
X42714286Y-41585771D01*
X42714286Y-41585771D02*
X42666667Y-41490533D01*
X42666667Y-41490533D02*
X42666667Y-41395295D01*
X42666667Y-41395295D02*
X42714286Y-41300057D01*
X42714286Y-41300057D02*
X42761905Y-41252438D01*
X42761905Y-41252438D02*
X42857143Y-41204819D01*
X42857143Y-41204819D02*
X43095238Y-41204819D01*
X43095238Y-41204819D02*
X43238095Y-41252438D01*
X43571429Y-41204819D02*
X43809524Y-42204819D01*
X43809524Y-42204819D02*
X44000000Y-41490533D01*
X44000000Y-41490533D02*
X44190476Y-42204819D01*
X44190476Y-42204819D02*
X44428572Y-41204819D01*
X45333333Y-42204819D02*
X44761905Y-42204819D01*
X45047619Y-42204819D02*
X45047619Y-41204819D01*
X45047619Y-41204819D02*
X44952381Y-41347676D01*
X44952381Y-41347676D02*
X44857143Y-41442914D01*
X44857143Y-41442914D02*
X44761905Y-41490533D01*
X53761905Y-33204819D02*
X53761905Y-32204819D01*
X53761905Y-32204819D02*
X54000000Y-32204819D01*
X54000000Y-32204819D02*
X54142857Y-32252438D01*
X54142857Y-32252438D02*
X54238095Y-32347676D01*
X54238095Y-32347676D02*
X54285714Y-32442914D01*
X54285714Y-32442914D02*
X54333333Y-32633390D01*
X54333333Y-32633390D02*
X54333333Y-32776247D01*
X54333333Y-32776247D02*
X54285714Y-32966723D01*
X54285714Y-32966723D02*
X54238095Y-33061961D01*
X54238095Y-33061961D02*
X54142857Y-33157200D01*
X54142857Y-33157200D02*
X54000000Y-33204819D01*
X54000000Y-33204819D02*
X53761905Y-33204819D01*
X55285714Y-33204819D02*
X54714286Y-33204819D01*
X55000000Y-33204819D02*
X55000000Y-32204819D01*
X55000000Y-32204819D02*
X54904762Y-32347676D01*
X54904762Y-32347676D02*
X54809524Y-32442914D01*
X54809524Y-32442914D02*
X54714286Y-32490533D01*
X37166666Y-21954819D02*
X37166666Y-22669104D01*
X37166666Y-22669104D02*
X37119047Y-22811961D01*
X37119047Y-22811961D02*
X37023809Y-22907200D01*
X37023809Y-22907200D02*
X36880952Y-22954819D01*
X36880952Y-22954819D02*
X36785714Y-22954819D01*
X38166666Y-22954819D02*
X37595238Y-22954819D01*
X37880952Y-22954819D02*
X37880952Y-21954819D01*
X37880952Y-21954819D02*
X37785714Y-22097676D01*
X37785714Y-22097676D02*
X37690476Y-22192914D01*
X37690476Y-22192914D02*
X37595238Y-22240533D01*
X66833333Y-28997080D02*
X66785714Y-29044700D01*
X66785714Y-29044700D02*
X66642857Y-29092319D01*
X66642857Y-29092319D02*
X66547619Y-29092319D01*
X66547619Y-29092319D02*
X66404762Y-29044700D01*
X66404762Y-29044700D02*
X66309524Y-28949461D01*
X66309524Y-28949461D02*
X66261905Y-28854223D01*
X66261905Y-28854223D02*
X66214286Y-28663747D01*
X66214286Y-28663747D02*
X66214286Y-28520890D01*
X66214286Y-28520890D02*
X66261905Y-28330414D01*
X66261905Y-28330414D02*
X66309524Y-28235176D01*
X66309524Y-28235176D02*
X66404762Y-28139938D01*
X66404762Y-28139938D02*
X66547619Y-28092319D01*
X66547619Y-28092319D02*
X66642857Y-28092319D01*
X66642857Y-28092319D02*
X66785714Y-28139938D01*
X66785714Y-28139938D02*
X66833333Y-28187557D01*
X67738095Y-28092319D02*
X67261905Y-28092319D01*
X67261905Y-28092319D02*
X67214286Y-28568509D01*
X67214286Y-28568509D02*
X67261905Y-28520890D01*
X67261905Y-28520890D02*
X67357143Y-28473271D01*
X67357143Y-28473271D02*
X67595238Y-28473271D01*
X67595238Y-28473271D02*
X67690476Y-28520890D01*
X67690476Y-28520890D02*
X67738095Y-28568509D01*
X67738095Y-28568509D02*
X67785714Y-28663747D01*
X67785714Y-28663747D02*
X67785714Y-28901842D01*
X67785714Y-28901842D02*
X67738095Y-28997080D01*
X67738095Y-28997080D02*
X67690476Y-29044700D01*
X67690476Y-29044700D02*
X67595238Y-29092319D01*
X67595238Y-29092319D02*
X67357143Y-29092319D01*
X67357143Y-29092319D02*
X67261905Y-29044700D01*
X67261905Y-29044700D02*
X67214286Y-28997080D01*
X50738095Y-21954819D02*
X50738095Y-22764342D01*
X50738095Y-22764342D02*
X50785714Y-22859580D01*
X50785714Y-22859580D02*
X50833333Y-22907200D01*
X50833333Y-22907200D02*
X50928571Y-22954819D01*
X50928571Y-22954819D02*
X51119047Y-22954819D01*
X51119047Y-22954819D02*
X51214285Y-22907200D01*
X51214285Y-22907200D02*
X51261904Y-22859580D01*
X51261904Y-22859580D02*
X51309523Y-22764342D01*
X51309523Y-22764342D02*
X51309523Y-21954819D01*
X51738095Y-22050057D02*
X51785714Y-22002438D01*
X51785714Y-22002438D02*
X51880952Y-21954819D01*
X51880952Y-21954819D02*
X52119047Y-21954819D01*
X52119047Y-21954819D02*
X52214285Y-22002438D01*
X52214285Y-22002438D02*
X52261904Y-22050057D01*
X52261904Y-22050057D02*
X52309523Y-22145295D01*
X52309523Y-22145295D02*
X52309523Y-22240533D01*
X52309523Y-22240533D02*
X52261904Y-22383390D01*
X52261904Y-22383390D02*
X51690476Y-22954819D01*
X51690476Y-22954819D02*
X52309523Y-22954819D01*
D12*
%TO.C,TP4*%
X57950000Y-30750000D02*
G75*
G02*
X56550000Y-30750000I-700000J0D01*
G01*
X56550000Y-30750000D02*
G75*
G02*
X57950000Y-30750000I700000J0D01*
G01*
%TO.C,VCC*%
X27200000Y-43750000D02*
G75*
G02*
X25800000Y-43750000I-700000J0D01*
G01*
X25800000Y-43750000D02*
G75*
G02*
X27200000Y-43750000I700000J0D01*
G01*
%TO.C,GND*%
X36950000Y-43750000D02*
G75*
G02*
X35550000Y-43750000I-700000J0D01*
G01*
X35550000Y-43750000D02*
G75*
G02*
X36950000Y-43750000I700000J0D01*
G01*
%TO.C,P13*%
X52450000Y-36250000D02*
G75*
G02*
X51050000Y-36250000I-700000J0D01*
G01*
X51050000Y-36250000D02*
G75*
G02*
X52450000Y-36250000I700000J0D01*
G01*
%TO.C,R5*%
X52477500Y-30662258D02*
X52477500Y-30187742D01*
X53522500Y-30662258D02*
X53522500Y-30187742D01*
%TO.C,R2*%
X58227500Y-24312258D02*
X58227500Y-23837742D01*
X59272500Y-24312258D02*
X59272500Y-23837742D01*
%TO.C,J2*%
X27300000Y-48080000D02*
X27300000Y-46750000D01*
X28630000Y-48080000D02*
X27300000Y-48080000D01*
X29900000Y-45420000D02*
X37580000Y-45420000D01*
X29900000Y-48080000D02*
X29900000Y-45420000D01*
X29900000Y-48080000D02*
X37580000Y-48080000D01*
X37580000Y-48080000D02*
X37580000Y-45420000D01*
%TO.C,R4*%
X53477500Y-26937742D02*
X53477500Y-27412258D01*
X54522500Y-26937742D02*
X54522500Y-27412258D01*
%TO.C,R1*%
X56427500Y-23837742D02*
X56427500Y-24312258D01*
X57472500Y-23837742D02*
X57472500Y-24312258D01*
%TO.C,C2*%
X64865580Y-30770000D02*
X64584420Y-30770000D01*
X64865580Y-31790000D02*
X64584420Y-31790000D01*
%TO.C,C6*%
X59490000Y-28496920D02*
X59490000Y-28778080D01*
X60510000Y-28496920D02*
X60510000Y-28778080D01*
%TO.C,C1*%
X51165580Y-27460000D02*
X50884420Y-27460000D01*
X51165580Y-28480000D02*
X50884420Y-28480000D01*
%TO.C,R3*%
X51337742Y-40227500D02*
X51812258Y-40227500D01*
X51337742Y-41272500D02*
X51812258Y-41272500D01*
%TO.C,SW1*%
X41250000Y-46625000D02*
X41250000Y-44625000D01*
X42250000Y-43325000D02*
X42700000Y-42875000D01*
X42250000Y-47925000D02*
X42700000Y-48375000D01*
X45300000Y-42875000D02*
X42700000Y-42875000D01*
X45300000Y-48375000D02*
X42700000Y-48375000D01*
X45750000Y-43325000D02*
X45300000Y-42875000D01*
X45750000Y-47925000D02*
X45300000Y-48375000D01*
X46750000Y-46625000D02*
X46750000Y-44625000D01*
%TO.C,D1*%
X53765000Y-28977500D02*
X53765000Y-31262500D01*
X55235000Y-28977500D02*
X53765000Y-28977500D01*
X55235000Y-31262500D02*
X55235000Y-28977500D01*
D13*
%TO.C,J1*%
X26910000Y-23271400D02*
X26910000Y-29100000D01*
X26910000Y-36722970D02*
X26910000Y-34900000D01*
X29780870Y-39741460D02*
X26910000Y-36722970D01*
X30149000Y-39391400D02*
X29780870Y-39741460D01*
X44881000Y-39391400D02*
X30149000Y-39391400D01*
X45249130Y-39741460D02*
X44881000Y-39391400D01*
X45249130Y-39741460D02*
X48120000Y-36722970D01*
X48120000Y-23271400D02*
X26910000Y-23271400D01*
X48120000Y-23271400D02*
X48120000Y-29100000D01*
X48120000Y-36722970D02*
X48120000Y-34900000D01*
D12*
%TO.C,C5*%
X64740000Y-28496920D02*
X64740000Y-28778080D01*
X65760000Y-28496920D02*
X65760000Y-28778080D01*
%TO.C,U2*%
X50190000Y-23477500D02*
X50365000Y-23477500D01*
X50190000Y-24152500D02*
X50190000Y-23477500D01*
X50190000Y-26022500D02*
X50190000Y-26697500D01*
X50190000Y-26697500D02*
X50365000Y-26697500D01*
X52910000Y-24152500D02*
X52910000Y-23777500D01*
X52910000Y-26022500D02*
X52910000Y-26697500D01*
X52910000Y-26697500D02*
X52735000Y-26697500D01*
X53100000Y-23617500D02*
X52910000Y-23477500D01*
X53100000Y-23337500D01*
X53100000Y-23617500D01*
G36*
X53100000Y-23617500D02*
G01*
X52910000Y-23477500D01*
X53100000Y-23337500D01*
X53100000Y-23617500D01*
G37*
%TD*%
M02*
