%TF.GenerationSoftware,KiCad,Pcbnew,8.0.3*%
%TF.CreationDate,2024-06-24T08:11:51-04:00*%
%TF.ProjectId,bike_cadence_meter,62696b65-5f63-4616-9465-6e63655f6d65,rev?*%
%TF.SameCoordinates,Original*%
%TF.FileFunction,Paste,Top*%
%TF.FilePolarity,Positive*%
%FSLAX46Y46*%
G04 Gerber Fmt 4.6, Leading zero omitted, Abs format (unit mm)*
G04 Created by KiCad (PCBNEW 8.0.3) date 2024-06-24 08:11:51*
%MOMM*%
%LPD*%
G01*
G04 APERTURE LIST*
G04 Aperture macros list*
%AMRoundRect*
0 Rectangle with rounded corners*
0 $1 Rounding radius*
0 $2 $3 $4 $5 $6 $7 $8 $9 X,Y pos of 4 corners*
0 Add a 4 corners polygon primitive as box body*
4,1,4,$2,$3,$4,$5,$6,$7,$8,$9,$2,$3,0*
0 Add four circle primitives for the rounded corners*
1,1,$1+$1,$2,$3*
1,1,$1+$1,$4,$5*
1,1,$1+$1,$6,$7*
1,1,$1+$1,$8,$9*
0 Add four rect primitives between the rounded corners*
20,1,$1+$1,$2,$3,$4,$5,0*
20,1,$1+$1,$4,$5,$6,$7,0*
20,1,$1+$1,$6,$7,$8,$9,0*
20,1,$1+$1,$8,$9,$2,$3,0*%
G04 Aperture macros list end*
%ADD10RoundRect,0.200000X0.275000X-0.200000X0.275000X0.200000X-0.275000X0.200000X-0.275000X-0.200000X0*%
%ADD11RoundRect,0.200000X-0.275000X0.200000X-0.275000X-0.200000X0.275000X-0.200000X0.275000X0.200000X0*%
%ADD12RoundRect,0.225000X0.225000X0.250000X-0.225000X0.250000X-0.225000X-0.250000X0.225000X-0.250000X0*%
%ADD13RoundRect,0.225000X-0.250000X0.225000X-0.250000X-0.225000X0.250000X-0.225000X0.250000X0.225000X0*%
%ADD14RoundRect,0.200000X-0.200000X-0.275000X0.200000X-0.275000X0.200000X0.275000X-0.200000X0.275000X0*%
%ADD15RoundRect,0.150000X0.725000X0.150000X-0.725000X0.150000X-0.725000X-0.150000X0.725000X-0.150000X0*%
%ADD16RoundRect,0.150000X-0.150000X0.725000X-0.150000X-0.725000X0.150000X-0.725000X0.150000X0.725000X0*%
%ADD17R,1.000000X0.750000*%
%ADD18RoundRect,0.218750X-0.256250X0.218750X-0.256250X-0.218750X0.256250X-0.218750X0.256250X0.218750X0*%
%ADD19RoundRect,0.150000X0.150000X-0.450000X0.150000X0.450000X-0.150000X0.450000X-0.150000X-0.450000X0*%
%ADD20R,1.270000X5.080000*%
%ADD21RoundRect,0.087500X-0.087500X0.225000X-0.087500X-0.225000X0.087500X-0.225000X0.087500X0.225000X0*%
%ADD22RoundRect,0.087500X-0.225000X0.087500X-0.225000X-0.087500X0.225000X-0.087500X0.225000X0.087500X0*%
G04 APERTURE END LIST*
D10*
%TO.C,R5*%
X53000000Y-31250000D03*
X53000000Y-29600000D03*
%TD*%
%TO.C,R2*%
X58750000Y-24900000D03*
X58750000Y-23250000D03*
%TD*%
D11*
%TO.C,R4*%
X54000000Y-26350000D03*
X54000000Y-28000000D03*
%TD*%
%TO.C,R1*%
X56950000Y-23250000D03*
X56950000Y-24900000D03*
%TD*%
D12*
%TO.C,C2*%
X65500000Y-31280000D03*
X63950000Y-31280000D03*
%TD*%
D13*
%TO.C,C6*%
X60000000Y-27862500D03*
X60000000Y-29412500D03*
%TD*%
D12*
%TO.C,C1*%
X51800000Y-27970000D03*
X50250000Y-27970000D03*
%TD*%
D14*
%TO.C,R3*%
X50750000Y-40750000D03*
X52400000Y-40750000D03*
%TD*%
D15*
%TO.C,U1*%
X65900000Y-42280000D03*
X65900000Y-41530000D03*
X65900000Y-40780000D03*
X65900000Y-40030000D03*
X65900000Y-39280000D03*
X65900000Y-38530000D03*
X65900000Y-37780000D03*
X65900000Y-37030000D03*
X65900000Y-36280000D03*
X65900000Y-35530000D03*
X65900000Y-34780000D03*
X65900000Y-34030000D03*
D16*
X64475000Y-33280000D03*
X63725000Y-33280000D03*
X62975000Y-33280000D03*
X62225000Y-33280000D03*
X61475000Y-33280000D03*
X60725000Y-33280000D03*
X59975000Y-33280000D03*
X59225000Y-33280000D03*
X58475000Y-33280000D03*
X57725000Y-33280000D03*
X56975000Y-33280000D03*
D15*
X55550000Y-34030000D03*
X55550000Y-34780000D03*
X55550000Y-35530000D03*
X55550000Y-36280000D03*
X55550000Y-37030000D03*
X55550000Y-37780000D03*
X55550000Y-38530000D03*
X55550000Y-39280000D03*
X55550000Y-40030000D03*
X55550000Y-40780000D03*
X55550000Y-41530000D03*
X55550000Y-42280000D03*
X55550000Y-43030000D03*
X55550000Y-43780000D03*
X55550000Y-44530000D03*
X55550000Y-45280000D03*
%TD*%
D17*
%TO.C,SW1*%
X47000000Y-47500000D03*
X41000000Y-47500000D03*
X47000000Y-43750000D03*
X41000000Y-43750000D03*
%TD*%
D18*
%TO.C,D1*%
X54500000Y-29675000D03*
X54500000Y-31250000D03*
%TD*%
D19*
%TO.C,Y1*%
X62150000Y-23450000D03*
X63050000Y-23450000D03*
X62150000Y-29750000D03*
X63050000Y-29750000D03*
%TD*%
D20*
%TO.C,J1*%
X48500000Y-32000000D03*
X26530000Y-32000000D03*
%TD*%
D13*
%TO.C,C5*%
X65250000Y-27862500D03*
X65250000Y-29412500D03*
%TD*%
D21*
%TO.C,U2*%
X52300000Y-23925000D03*
X51800000Y-23925000D03*
X51300000Y-23925000D03*
X50800000Y-23925000D03*
D22*
X50637500Y-24587500D03*
X50637500Y-25087500D03*
X50637500Y-25587500D03*
D21*
X50800000Y-26250000D03*
X51300000Y-26250000D03*
X51800000Y-26250000D03*
X52300000Y-26250000D03*
D22*
X52462500Y-25587500D03*
X52462500Y-25087500D03*
X52462500Y-24587500D03*
%TD*%
M02*
